<?xml version="1.0" encoding="utf-8"?>
<!-- Generator: Adobe Illustrator 27.5.0, SVG Export Plug-In . SVG Version: 6.00 Build 0)  -->
<svg version="1.1" id="Ñëîé_1" xmlns="http://www.w3.org/2000/svg" xmlns:xlink="http://www.w3.org/1999/xlink" x="0px" y="0px"
	 viewBox="0 0 5805.592 2200" style="enable-background:new 0 0 5805.592 2200;" xml:space="preserve">
<rect x="0" y="0" style="fill:#FFFFFF;" width="5805.592" height="2200"/>
<g>
	<path style="fill:#E5F0F8;" d="M1800.656,680.45h-185.103c-11.03,0-19.972,8.942-19.972,19.972v106.565
		c0,11.03,8.942,19.972,19.972,19.972h74.413V851h-48.973c-0.958,0-1.735,0.777-1.735,1.735v6.151c0,0.958,0.777,1.735,1.735,1.735
		h134.223c0.958,0,1.735-0.777,1.735-1.735v-6.151c0-0.958-0.777-1.735-1.735-1.735h-48.973v-24.041h74.413
		c11.03,0,19.972-8.942,19.972-19.972V700.422C1820.627,689.392,1811.686,680.45,1800.656,680.45z"/>
	<g>
		<path style="fill:#E5F0F8;" d="M395.434,811.185h447.633c6.574,0,12.054-5.107,12.414-11.672
			c1.357-24.738-1.416-80.196-53.551-80.226c-57.74-0.034-76.483,24.635-76.483,24.635s5.051-100.417-93.8-100.27
			c-91.007,0.135-124.104,93.313-124.104,93.313s-87.12-41.016-123.736,57.33C380.768,802.461,386.721,811.185,395.434,811.185z"/>
		<polygon style="fill:#FFFFFF;" points="619.362,680.389 585.449,727.063 601.838,727.063 601.838,774.449 636.886,774.449 
			636.886,727.063 653.275,727.063 		"/>
	</g>
	<path style="fill:#E5F0F8;" d="M458.01,2036.559c0,0-370.075-582.05,18.052-916.736s755.194,75.732,1158.365-51.652
		S2000.39,97.166,2974.269,128.296s971.873,634.149,1457.282,823.454c485.41,189.305,1083.146,162.326,918.668,1084.809H458.01z"/>
	<path style="fill:#0775EF;" d="M5498.815,2072.544H306.777c-21.637,0-39.177-17.54-39.177-39.177v-0.953
		c0-21.637,17.54-39.177,39.177-39.177h5192.039c21.637,0,39.177,17.54,39.177,39.177v0.953
		C5537.992,2055.004,5520.452,2072.544,5498.815,2072.544z"/>
	<g>
		<rect x="2769.049" y="1519.413" style="fill:#586773;" width="315.689" height="426.732"/>
		<path style="fill:#586773;" d="M3906.087,599.177v927.318c0,96.013-77.815,173.829-173.782,173.829h-1610.81
			c-95.966,0-173.782-77.816-173.782-173.829V599.177c0-96.013,77.815-173.782,173.782-173.782h1610.81
			C3828.271,425.395,3906.087,503.164,3906.087,599.177z"/>
		<path style="fill:#586773;" d="M2614.284,1909.519h625.219c6.129,0,11.098,4.969,11.098,11.098v61.522
			c0,6.129-4.969,11.098-11.098,11.098h-625.219c-6.129,0-11.098-4.969-11.098-11.098v-61.522
			C2603.185,1914.487,2608.154,1909.519,2614.284,1909.519z"/>
		<rect x="2811.384" y="1519.413" style="fill:#93ACBF;" width="315.689" height="426.732"/>
		<path style="fill:#93ACBF;" d="M3948.439,599.177v927.318c0,96.013-77.815,173.829-173.829,173.829H2163.847
			c-96.013,0-173.829-77.816-173.829-173.829V599.177c0-96.013,77.815-173.782,173.829-173.782H3774.61
			C3870.624,425.395,3948.439,503.164,3948.439,599.177z"/>
		<path style="fill:#E5F0F8;" d="M2163.834,1635.149c-59.902,0-108.635-48.734-108.635-108.636V599.17
			c0-59.902,48.733-108.635,108.635-108.635h1610.788c59.902,0,108.635,48.734,108.635,108.635v927.344
			c0,59.902-48.734,108.636-108.635,108.636H2163.834z"/>
		<path style="fill:#BBDBF3;" d="M3818.085,599.182v59.892h-1697.74v-59.892c0-23.976,19.522-43.499,43.498-43.499h1610.744
			C3798.563,555.683,3818.085,575.206,3818.085,599.182z"/>
		<path style="fill:#FFFFFF;" d="M3818.087,661.539v867.395c0,17.481-10.313,32.538-25.216,39.448
			c-5.57,2.63-11.757,4.074-18.255,4.074H2163.843c-23.979,0-43.471-19.543-43.471-43.522V661.539H3818.087z"/>
		
			<ellipse transform="matrix(0.9239 -0.3827 0.3827 0.9239 -65.2306 893.3964)" style="fill:#40A87B;" cx="2213.086" cy="610.666" rx="16.671" ry="16.671"/>
		
			<ellipse transform="matrix(0.9239 -0.3827 0.3827 0.9239 -61.6583 911.3555)" style="fill:#FFFFFF;" cx="2260.015" cy="610.666" rx="16.671" ry="16.671"/>
		
			<ellipse transform="matrix(0.7071 -0.7071 0.7071 0.7071 243.8822 1810.116)" style="fill:#F74242;" cx="2306.944" cy="610.666" rx="16.671" ry="16.671"/>
		<path style="fill:#93ACBF;" d="M2656.618,1909.519h625.219c6.129,0,11.098,4.969,11.098,11.098v61.522
			c0,6.129-4.969,11.098-11.098,11.098h-625.219c-6.129,0-11.098-4.969-11.098-11.098v-61.522
			C2645.52,1914.487,2650.489,1909.519,2656.618,1909.519z"/>
		<rect x="2120.345" y="659.074" style="fill:#E5F0F8;" width="1697.74" height="138.005"/>
		<rect x="3578.739" y="685.606" style="fill:#FFFFFF;" width="206.472" height="82.162"/>
		<rect x="3331.561" y="685.606" style="fill:#FFFFFF;" width="206.472" height="82.162"/>
		<polygon style="fill:#586773;" points="2811.384,1700.445 3127.072,1700.445 2811.384,1780.125 		"/>
		<g>
			<rect x="2404.889" y="685.745" style="fill:#FFFFFF;" width="810.249" height="81.882"/>
			<rect x="3051.876" y="685.745" style="fill:#BBDBF3;" width="163.261" height="81.882"/>
			<path style="fill:#FFFFFF;" d="M3164.605,740.474l-20.711-11.589c4.468-12.286-0.372-26.295-12.146-32.858
				c-13.078-7.307-29.6-2.699-36.907,10.379c-7.307,13.078-2.606,29.646,10.425,36.906c11.775,6.609,26.249,3.351,34.393-6.888
				l24.946,13.962l18.663,10.425l4.235-7.54L3164.605,740.474z M3137.006,729.956c-5.724,10.239-18.663,13.869-28.808,8.191
				c-10.239-5.725-13.869-18.616-8.145-28.855c5.678-10.146,18.57-13.869,28.808-8.145
				C3139.008,706.825,3142.684,719.81,3137.006,729.956z"/>
		</g>
		<rect x="2143.331" y="685.745" style="fill:#FFFFFF;" width="116.685" height="14.901"/>
		<rect x="2143.331" y="719.236" style="fill:#FFFFFF;" width="116.685" height="14.901"/>
		<rect x="2143.331" y="752.726" style="fill:#FFFFFF;" width="116.685" height="14.901"/>
		<g>
			<path style="fill:#98EB98;" d="M2156.37,847.405v-3.936l22.721-12.296v6.011l-15.177,8.253l15.177,8.253v6.011L2156.37,847.405z"
				/>
			<path style="fill:#98EB98;" d="M2599.075,1547.744v-6.011l15.177-8.253l-15.177-8.253v-6.011l22.721,12.296v3.936
				L2599.075,1547.744z"/>
			<rect x="2187.518" y="840.795" style="fill:#98EB98;" width="90.357" height="9.283"/>
			<rect x="2156.37" y="876.668" style="fill:#98EB98;" width="90.357" height="9.283"/>
			<rect x="2175.617" y="901.659" style="fill:#98EB98;" width="90.357" height="9.283"/>
			<rect x="2175.617" y="970.439" style="fill:#98EB98;" width="90.357" height="9.283"/>
			<rect x="2175.617" y="991.715" style="fill:#98EB98;" width="90.357" height="9.283"/>
			<rect x="2206.666" y="925.46" style="fill:#98EB98;" width="272.498" height="9.283"/>
			<rect x="2206.666" y="1014.32" style="fill:#98EB98;" width="364.035" height="9.283"/>
			<rect x="2206.666" y="1085.49" style="fill:#98EB98;" width="364.035" height="9.283"/>
			<rect x="2240.904" y="1155.16" style="fill:#98EB98;" width="348.763" height="9.283"/>
			<rect x="2206.666" y="1109.672" style="fill:#98EB98;" width="77.971" height="9.283"/>
			<rect x="2206.666" y="1132.674" style="fill:#98EB98;" width="77.971" height="9.283"/>
			<rect x="2206.666" y="1037.039" style="fill:#98EB98;" width="364.035" height="9.283"/>
			<rect x="2206.666" y="1059.757" style="fill:#98EB98;" width="196.959" height="9.283"/>
			<rect x="2175.617" y="1181.734" style="fill:#98EB98;" width="81.387" height="9.283"/>
			<rect x="2175.617" y="1203.01" style="fill:#98EB98;" width="81.387" height="9.283"/>
			<rect x="2203.583" y="1225.615" style="fill:#98EB98;" width="327.894" height="9.283"/>
			<rect x="2203.583" y="1296.785" style="fill:#98EB98;" width="327.894" height="9.283"/>
			<rect x="2234.423" y="1366.455" style="fill:#98EB98;" width="314.138" height="9.283"/>
			<rect x="2203.583" y="1320.967" style="fill:#98EB98;" width="70.23" height="9.283"/>
			<rect x="2203.583" y="1343.969" style="fill:#98EB98;" width="70.23" height="9.283"/>
			<rect x="2203.583" y="1248.334" style="fill:#98EB98;" width="327.894" height="9.283"/>
			<rect x="2203.583" y="1271.052" style="fill:#98EB98;" width="177.406" height="9.283"/>
			<rect x="2234.61" y="1389.606" style="fill:#98EB98;" width="81.387" height="9.283"/>
			<rect x="2234.61" y="1410.882" style="fill:#98EB98;" width="81.387" height="9.283"/>
			<rect x="2262.576" y="1433.487" style="fill:#98EB98;" width="327.894" height="9.283"/>
			<rect x="2262.576" y="1504.657" style="fill:#98EB98;" width="260.93" height="9.283"/>
			<rect x="2262.576" y="1528.839" style="fill:#98EB98;" width="326.749" height="9.283"/>
			<rect x="2262.576" y="1456.206" style="fill:#98EB98;" width="327.894" height="9.283"/>
			<rect x="2262.576" y="1478.924" style="fill:#98EB98;" width="177.405" height="9.283"/>
			<rect x="2206.666" y="946.853" style="fill:#98EB98;" width="83.557" height="9.283"/>
		</g>
		<g>
			<path style="fill:#BBDBF3;" d="M2873.624,830.633v-4.091l29.385-12.781v6.248l-19.628,8.578l19.628,8.578v6.248L2873.624,830.633
				z"/>
			<path style="fill:#BBDBF3;" d="M3731.587,1558.601v-6.249l19.628-8.578l-19.628-8.578v-6.248l29.385,12.781v4.091
				L3731.587,1558.601z"/>
			<rect x="2913.907" y="823.763" style="fill:#BBDBF3;" width="116.859" height="9.649"/>
			<rect x="2873.624" y="861.051" style="fill:#BBDBF3;" width="116.859" height="9.649"/>
			<rect x="2898.516" y="887.027" style="fill:#BBDBF3;" width="116.859" height="9.649"/>
			<rect x="2898.516" y="958.521" style="fill:#BBDBF3;" width="116.859" height="9.649"/>
			<rect x="2898.516" y="980.636" style="fill:#BBDBF3;" width="116.859" height="9.649"/>
			<rect x="2938.671" y="911.767" style="fill:#BBDBF3;" width="352.422" height="9.649"/>
			<rect x="2938.671" y="1004.133" style="fill:#BBDBF3;" width="739.895" height="9.649"/>
			<rect x="2938.671" y="1078.11" style="fill:#BBDBF3;" width="739.895" height="9.649"/>
			<rect x="3008.26" y="1150.529" style="fill:#BBDBF3;" width="708.854" height="9.649"/>
			<rect x="2938.671" y="1103.246" style="fill:#BBDBF3;" width="100.84" height="9.649"/>
			<rect x="2938.671" y="1127.156" style="fill:#BBDBF3;" width="100.84" height="9.649"/>
			<rect x="2938.671" y="1027.748" style="fill:#BBDBF3;" width="739.895" height="9.649"/>
			<rect x="2938.671" y="1051.363" style="fill:#BBDBF3;" width="254.728" height="9.649"/>
			<rect x="2898.516" y="1178.152" style="fill:#BBDBF3;" width="105.257" height="9.649"/>
			<rect x="2898.516" y="1200.267" style="fill:#BBDBF3;" width="105.257" height="9.649"/>
			<rect x="2934.685" y="1223.764" style="fill:#BBDBF3;" width="424.065" height="9.649"/>
			<rect x="2934.685" y="1297.741" style="fill:#BBDBF3;" width="424.065" height="9.649"/>
			<rect x="2995.086" y="1370.16" style="fill:#BBDBF3;" width="638.48" height="9.649"/>
			<rect x="2934.685" y="1322.877" style="fill:#BBDBF3;" width="90.829" height="9.649"/>
			<rect x="2934.685" y="1346.787" style="fill:#BBDBF3;" width="90.829" height="9.649"/>
			<rect x="2934.685" y="1247.379" style="fill:#BBDBF3;" width="424.065" height="9.649"/>
			<rect x="2934.685" y="1270.994" style="fill:#BBDBF3;" width="229.439" height="9.649"/>
			<rect x="2974.811" y="1394.224" style="fill:#BBDBF3;" width="105.257" height="9.649"/>
			<rect x="2974.811" y="1416.34" style="fill:#BBDBF3;" width="105.257" height="9.649"/>
			<rect x="3052.307" y="1439.837" style="fill:#BBDBF3;" width="666.439" height="9.649"/>
			<rect x="3010.979" y="1513.814" style="fill:#BBDBF3;" width="337.461" height="9.649"/>
			<rect x="3052.307" y="1538.95" style="fill:#BBDBF3;" width="664.112" height="9.649"/>
			<rect x="3052.307" y="1463.452" style="fill:#BBDBF3;" width="666.439" height="9.649"/>
			<rect x="3010.979" y="1487.066" style="fill:#BBDBF3;" width="229.439" height="9.649"/>
			<rect x="2938.671" y="934.004" style="fill:#BBDBF3;" width="108.065" height="9.649"/>
		</g>
		<rect x="2799.908" y="797.079" style="fill:#E5F0F8;" width="20.209" height="775.378"/>
	</g>
	<g>
		<path style="fill:#BBDBF3;" d="M533.85,1249.728v-6.565l37.9-20.511v10.027l-25.316,13.767l25.316,13.767v10.027L533.85,1249.728z
			"/>
		<path style="fill:#BBDBF3;" d="M1272.322,1794.628V1784.6l25.317-13.767l-25.317-13.766v-10.027l37.9,20.511v6.565
			L1272.322,1794.628z"/>
		<rect x="585.807" y="1238.703" style="fill:#BBDBF3;" width="150.724" height="15.485"/>
		<rect x="533.85" y="1298.543" style="fill:#BBDBF3;" width="150.724" height="15.485"/>
		<rect x="565.957" y="1340.229" style="fill:#BBDBF3;" width="150.724" height="15.485"/>
		<rect x="565.957" y="1454.96" style="fill:#BBDBF3;" width="150.724" height="15.485"/>
		<rect x="565.957" y="1490.451" style="fill:#BBDBF3;" width="150.724" height="15.485"/>
		<rect x="617.748" y="1379.931" style="fill:#BBDBF3;" width="454.552" height="15.485"/>
		<rect x="617.748" y="1528.158" style="fill:#BBDBF3;" width="607.243" height="15.485"/>
		<rect x="617.748" y="1646.875" style="fill:#BBDBF3;" width="607.243" height="15.485"/>
		<rect x="674.861" y="1763.091" style="fill:#BBDBF3;" width="581.768" height="15.485"/>
		<rect x="617.748" y="1687.213" style="fill:#BBDBF3;" width="130.063" height="15.485"/>
		<rect x="617.748" y="1725.583" style="fill:#BBDBF3;" width="130.063" height="15.485"/>
		<rect x="617.748" y="1566.055" style="fill:#BBDBF3;" width="607.243" height="15.485"/>
		<rect x="617.748" y="1603.951" style="fill:#BBDBF3;" width="328.546" height="15.485"/>
		<rect x="617.748" y="1415.617" style="fill:#BBDBF3;" width="139.381" height="15.485"/>
	</g>
	<g>
		<path style="fill:#322A28;" d="M420.323,919.202h162.014c23.154,0,45.502,2.28,67.055,6.811
			c21.552,4.537,40.506,12.143,56.85,22.802c16.333,10.67,29.372,24.964,39.14,42.887c9.757,17.934,14.641,40.282,14.641,67.055
			c0,30.413-5.231,54.918-15.66,73.524c-10.451,18.612-24.51,33.018-42.209,43.228s-38.232,17.133-61.611,20.763
			c-23.378,3.635-47.765,5.444-73.182,5.444h-61.264v199.462h-85.773V919.202z M557.838,1128.197c12.255,0,24.947-0.448,38.12-1.361
			c13.151-0.907,25.294-3.63,36.418-8.172c11.112-4.531,20.186-11.336,27.232-20.421c7.035-9.074,10.552-21.788,10.552-38.126
			c0-14.977-3.181-26.89-9.533-35.74c-6.363-8.849-14.529-15.655-24.51-20.421c-9.981-4.766-21.104-7.83-33.348-9.191
			c-12.255-1.361-24.062-2.039-35.409-2.039h-61.264v135.471H557.838z"/>
		<path style="fill:#322A28;" d="M836.263,919.202h167.469c23.143,0,45.491,2.162,67.055,6.469
			c21.541,4.318,40.719,11.689,57.522,22.124c16.781,10.446,30.178,24.504,40.159,42.209c9.981,17.699,14.977,40.165,14.977,67.391
			c0,34.956-9.645,64.227-28.935,87.818c-19.29,23.602-46.858,37.902-82.704,42.887l127.982,213.078h-103.484l-111.639-204.229
			h-62.63v204.229h-85.773V919.202z M988.755,1123.431c12.255,0,24.499-0.566,36.754-1.703c12.255-1.126,23.49-3.854,33.695-8.172
			c10.216-4.307,18.495-10.888,24.857-19.738c6.34-8.85,9.522-21.211,9.522-37.101c0-14.064-2.957-25.412-8.85-34.037
			c-5.903-8.62-13.61-15.083-23.143-19.402c-9.533-4.313-20.085-7.152-31.657-8.513c-11.572-1.361-22.807-2.039-33.695-2.039
			h-74.202v130.705H988.755z"/>
		<path style="fill:#322A28;" d="M1239.265,1162.235c0-38.568,6.34-73.63,19.055-105.181c12.703-31.534,30.301-58.424,52.761-80.665
			c22.46-22.23,49.233-39.369,80.329-51.4c31.085-12.02,65.24-18.041,102.453-18.041c37.661-0.443,72.163,5.108,103.473,16.68
			c31.321,11.572,58.317,28.487,81.013,50.717c22.684,22.242,40.383,49.014,53.097,80.329
			c12.703,31.315,19.066,66.265,19.066,104.839c0,37.672-6.363,71.933-19.066,102.789c-12.714,30.873-30.413,57.421-53.097,79.651
			c-22.695,22.242-49.692,39.599-81.013,52.078c-31.309,12.479-65.812,18.943-103.473,19.402c-37.213,0-71.368-6.027-102.453-18.035
			c-31.097-12.025-57.869-29.047-80.329-51.064c-22.46-22.006-40.058-48.437-52.761-79.304
			C1245.605,1234.168,1239.265,1199.907,1239.265,1162.235z M1329.116,1156.785c0,25.871,3.977,49.698,11.919,71.48
			c7.931,21.788,19.167,40.624,33.696,56.503c14.518,15.896,31.881,28.369,52.078,37.443c20.186,9.085,42.769,13.616,67.738,13.616
			c24.947,0,47.653-4.531,68.074-13.616c20.421-9.074,37.885-21.547,52.414-37.443c14.518-15.879,25.753-34.715,33.696-56.503
			c7.942-21.782,11.919-45.609,11.919-71.48c0-24.045-3.977-46.51-11.919-67.391c-7.942-20.869-19.178-39.145-33.696-54.8
			c-14.529-15.66-31.993-27.915-52.414-36.765c-20.421-8.85-43.128-13.274-68.074-13.274c-24.969,0-47.552,4.425-67.738,13.274
			c-20.197,8.85-37.56,21.104-52.078,36.765c-14.529,15.655-25.765,33.931-33.696,54.8
			C1333.092,1110.274,1329.116,1132.74,1329.116,1156.785z"/>
		<path style="fill:#322A28;" d="M2260.391,1365.78c-59.46,31.769-125.944,47.653-199.462,47.653
			c-37.213,0-71.368-6.027-102.453-18.035c-31.097-12.025-57.869-29.047-80.329-51.064c-22.46-22.006-40.058-48.437-52.761-79.304
			c-12.714-30.861-19.055-65.123-19.055-102.795c0-38.568,6.34-73.63,19.055-105.181c12.703-31.534,30.301-58.424,52.761-80.665
			c22.46-22.23,49.233-39.369,80.329-51.4c31.085-12.02,65.24-18.041,102.453-18.041c36.765,0,71.245,4.425,103.473,13.274
			c32.217,8.855,61.04,24.628,86.457,47.317l-63.313,63.991c-15.425-14.977-34.155-26.554-56.156-34.721
			c-22.023-8.172-45.267-12.255-69.777-12.255c-24.969,0-47.552,4.425-67.738,13.274c-20.197,8.85-37.56,21.104-52.078,36.765
			c-14.529,15.655-25.765,33.931-33.696,54.8c-7.942,20.88-11.919,43.346-11.919,67.391c0,25.871,3.977,49.698,11.919,71.48
			c7.931,21.788,19.167,40.624,33.696,56.503c14.518,15.896,31.881,28.369,52.078,37.443c20.186,9.085,42.769,13.616,67.738,13.616
			c21.777,0,42.31-2.044,61.611-6.128c19.279-4.083,36.417-10.435,51.395-19.06v-113.689h-98.712v-77.602h184.485V1365.78z"/>
		<path style="fill:#322A28;" d="M2361.825,919.202h167.469c23.143,0,45.491,2.162,67.055,6.469
			c21.541,4.318,40.719,11.689,57.522,22.124c16.781,10.446,30.178,24.504,40.159,42.209c9.981,17.699,14.977,40.165,14.977,67.391
			c0,34.956-9.645,64.227-28.935,87.818c-19.29,23.602-46.858,37.902-82.704,42.887l127.982,213.078h-103.484l-111.639-204.229
			h-62.63v204.229h-85.773V919.202z M2514.317,1123.431c12.255,0,24.499-0.566,36.754-1.703c12.255-1.126,23.49-3.854,33.696-8.172
			c10.216-4.307,18.494-10.888,24.857-19.738c6.34-8.85,9.522-21.211,9.522-37.101c0-14.064-2.957-25.412-8.85-34.037
			c-5.903-8.62-13.61-15.083-23.143-19.402c-9.533-4.313-20.085-7.152-31.657-8.513c-11.572-1.361-22.807-2.039-33.696-2.039
			h-74.202v130.705H2514.317z"/>
		<path style="fill:#322A28;" d="M2946.578,919.202h74.213l207.628,481.976h-98.028l-44.931-110.283h-208.995l-43.564,110.283
			h-95.99L2946.578,919.202z M3055.506,1217.376l-74.202-196.062l-75.569,196.062H3055.506z"/>
		<path style="fill:#322A28;" d="M3284.217,919.202h130.705l128.666,337.655l130.021-337.655h129.349v481.976h-81.696v-400.285
			h-1.355l-146.365,400.285h-59.908l-146.365-400.285h-1.355v400.285h-81.696V919.202z"/>
		<path style="fill:#322A28;" d="M3914.596,919.202h130.705l128.666,337.655l130.021-337.655h129.349v481.976h-81.696v-400.285
			h-1.355l-146.365,400.285h-59.908l-146.365-400.285h-1.355v400.285h-81.696V919.202z"/>
		<path style="fill:#322A28;" d="M4542.937,919.202h319.279v77.607H4628.71v118.45h221.25v77.607h-221.25v130.705h245.749v77.607
			h-331.522V919.202z"/>
		<path style="fill:#322A28;" d="M4958.877,919.202h167.469c23.143,0,45.491,2.162,67.055,6.469
			c21.541,4.318,40.719,11.689,57.522,22.124c16.78,10.446,30.178,24.504,40.159,42.209c9.98,17.699,14.977,40.165,14.977,67.391
			c0,34.956-9.645,64.227-28.935,87.818c-19.29,23.602-46.858,37.902-82.704,42.887l127.982,213.078h-103.483l-111.639-204.229
			h-62.63v204.229h-85.773V919.202z M5111.369,1123.431c12.255,0,24.499-0.566,36.753-1.703c12.255-1.126,23.491-3.854,33.696-8.172
			c10.216-4.307,18.495-10.888,24.857-19.738c6.34-8.85,9.522-21.211,9.522-37.101c0-14.064-2.958-25.412-8.85-34.037
			c-5.903-8.62-13.61-15.083-23.143-19.402c-9.533-4.313-20.085-7.152-31.657-8.513c-11.571-1.361-22.807-2.039-33.695-2.039
			h-74.202v130.705H5111.369z"/>
	</g>
	<g>
		<polygon style="fill:#9CCCED;" points="855.72,562.753 1230.377,1002.914 1087.564,562.753 		"/>
		<polygon style="fill:#BBDBF3;" points="1087.564,562.753 1230.377,1002.914 1605.033,562.753 		"/>
		<polygon style="fill:#BBDBF3;" points="1230.377,398.38 1230.376,398.38 1230.377,398.38 		"/>
		<polygon style="fill:#E5F0F8;" points="1605.033,562.753 1230.377,1002.914 1373.19,562.753 		"/>
		<polygon style="fill:#9CCCED;" points="1230.377,398.38 1230.376,398.38 980.7,398.38 980.7,398.38 1087.564,562.753 		"/>
		<polygon style="fill:#7EBCE6;" points="980.7,398.38 855.72,562.753 1087.563,562.753 1087.564,562.753 		"/>
		<polygon style="fill:#E5F0F8;" points="1230.377,398.38 1087.564,562.753 1087.564,562.753 1087.564,562.753 1087.563,562.753 
			1373.19,562.753 		"/>
		<polygon style="fill:#9CCCED;" points="1373.19,562.753 1461.775,426.496 1480.054,398.38 1230.377,398.38 1230.377,398.38 
			1373.19,562.753 1461.775,426.496 		"/>
		<polygon style="fill:#BBDBF3;" points="1480.054,398.38 1480.054,398.38 1461.775,426.496 		"/>
		<polygon style="fill:#BBDBF3;" points="1605.033,562.753 1480.054,398.38 1480.054,398.38 1461.775,426.496 1373.19,562.753 
			1373.19,562.753 		"/>
	</g>
	<g>
		<path style="fill:#0775EF;" d="M3019.166,492.445h-321.642c-10.03,0-18.161-8.131-18.161-18.161V264.086
			c0-10.03,8.131-18.161,18.161-18.161h321.642c10.03,0,18.161,8.131,18.161,18.161v210.198
			C3037.327,484.314,3029.196,492.445,3019.166,492.445z"/>
		<path style="fill:#088CFC;" d="M3038.31,492.445h-321.643c-10.03,0-18.161-8.131-18.161-18.161V264.086
			c0-10.03,8.131-18.161,18.161-18.161h321.643c10.03,0,18.161,8.131,18.161,18.161v210.198
			C3056.471,484.314,3048.34,492.445,3038.31,492.445z"/>
		<g>
			<path style="fill:#FFFFFF;" d="M2717.651,391.124v-17.95l103.625-56.082v27.417l-69.219,37.64l69.219,37.64v27.417
				L2717.651,391.124z"/>
			<path style="fill:#FFFFFF;" d="M2852.811,469.638l-16.997-7.476l63.893-193.43l16.997,7.977L2852.811,469.638z"/>
			<path style="fill:#FFFFFF;" d="M3037.327,373.174v17.95l-103.625,56.082v-27.417l69.219-37.64l-69.219-37.64v-27.417
				L3037.327,373.174z"/>
		</g>
	</g>
	<g>
		<path style="fill:#0775EF;" d="M4069.472,784.799H3811.88c-9.032,0-16.355-7.322-16.355-16.355v-213.81
			c0-9.032,7.322-16.355,16.355-16.355h257.592c9.032,0,16.355,7.322,16.355,16.355v213.81
			C4085.827,777.477,4078.505,784.799,4069.472,784.799z"/>
		<path style="fill:#088CFC;" d="M4084.998,784.799h-257.592c-9.032,0-16.355-7.322-16.355-16.355v-213.81
			c0-9.032,7.323-16.355,16.355-16.355h257.592c9.033,0,16.355,7.322,16.355,16.355v213.81
			C4101.353,777.477,4094.031,784.799,4084.998,784.799z"/>
		<g>
			<path style="fill:#FFFFFF;" d="M3922.018,581.843h-9.641c-2.141,0-3.892,0.535-5.247,1.606c-1.36,1.071-2.465,2.501-3.323,4.285
				c-0.853,1.787-1.467,3.786-1.818,5.997c-0.357,2.216-0.535,4.466-0.535,6.75v32.349c0.139,5.002-0.469,9.214-1.823,12.641
				c-1.361,3.429-3.033,6.287-5.035,8.57c-2.002,2.286-4.037,4.001-6.106,5.141c-2.069,1.146-3.747,1.86-5.035,2.144v0.641
				c1.288,0.145,2.967,0.717,5.035,1.715c2.069,1.001,4.104,2.57,6.106,4.712c2.002,2.144,3.675,5.035,5.035,8.679
				c1.355,3.641,1.963,8.177,1.823,13.603v32.137c0,2.141,0.178,4.319,0.535,6.532c0.351,2.214,0.965,4.213,1.818,6
				c0.859,1.784,1.963,3.215,3.323,4.285c1.355,1.071,3.106,1.606,5.247,1.606h9.641v15.426h-16.064
				c-2.716,0-5.398-0.644-8.035-1.929c-2.649-1.285-5.035-3.248-7.176-5.891c-2.147-2.643-3.898-6.036-5.253-10.176
				c-1.355-4.143-2.035-9.072-2.035-14.782v-28.708c-0.284-7.854-2.141-13.996-5.57-18.426c-3.424-4.424-7.572-6.641-12.423-6.641
				v-16.711c4.851,0,9-2.211,12.423-6.641c3.429-4.425,5.286-10.567,5.57-18.423v-33.852c0-4.567,0.68-8.601,2.035-12.103
				c1.355-3.499,3.106-6.429,5.253-8.785c2.141-2.356,4.528-4.14,7.176-5.356c2.637-1.213,5.319-1.821,8.035-1.821h16.064V581.843z"
				/>
			<path style="fill:#FFFFFF;" d="M3993.999,741.236h9.641c2.141,0,3.892-0.535,5.253-1.606c1.355-1.071,2.459-2.501,3.318-4.285
				c0.859-1.787,1.461-3.786,1.823-6c0.351-2.214,0.535-4.464,0.535-6.747v-32.352c-0.145-4.996,0.463-9.212,1.818-12.638
				c1.355-3.429,3.033-6.284,5.035-8.57c2.002-2.283,4.037-3.998,6.106-5.141c2.069-1.143,3.753-1.854,5.035-2.144v-0.641
				c-1.282-0.142-2.967-0.714-5.035-1.715c-2.069-0.998-4.104-2.571-6.106-4.714c-2.002-2.141-3.68-5.032-5.035-8.676
				c-1.355-3.641-1.963-8.174-1.818-13.603v-32.137c0-2.141-0.184-4.319-0.535-6.535c-0.363-2.211-0.965-4.21-1.823-5.997
				c-0.859-1.784-1.963-3.215-3.318-4.285c-1.361-1.071-3.111-1.606-5.253-1.606h-9.641v-15.426h16.07
				c2.71,0,5.386,0.641,8.035,1.929c2.637,1.285,5.035,3.248,7.177,5.891c2.141,2.643,3.886,6.036,5.247,10.176
				c1.355,4.143,2.035,9.072,2.035,14.782v28.708c0,7.857,1.784,13.998,5.358,18.426c3.569,4.427,7.779,6.641,12.641,6.641v16.709
				c-4.862,0-9.072,2.216-12.641,6.644c-3.574,4.427-5.358,10.569-5.358,18.423v33.849c0,4.57-0.68,8.604-2.035,12.106
				c-1.36,3.499-3.106,6.426-5.247,8.785c-2.141,2.356-4.539,4.14-7.177,5.356c-2.649,1.21-5.325,1.821-8.035,1.821h-16.07V741.236z
				"/>
		</g>
	</g>
	<g>
		<path style="fill:#F2BB16;" d="M2100.13,603.761h-356.789c-10.102,0-18.292-8.189-18.292-18.292V394.48
			c0-10.102,8.189-18.292,18.292-18.292h356.789c10.102,0,18.292,8.189,18.292,18.292v190.989
			C2118.421,595.571,2110.232,603.761,2100.13,603.761z"/>
		<path style="fill:#F9E181;" d="M2120.475,603.761h-356.789c-10.102,0-18.292-8.189-18.292-18.292V394.48
			c0-10.102,8.19-18.292,18.292-18.292h356.789c10.102,0,18.292,8.189,18.292,18.292v190.989
			C2138.767,595.571,2130.577,603.761,2120.475,603.761z"/>
		<g>
			<path style="fill:#FFFFFF;" d="M1836.478,433.013h15.062v79.405c0,7.011-1.098,12.738-3.295,17.182
				c-2.196,4.444-4.942,7.949-8.237,10.51c-3.295,2.567-6.826,4.342-10.593,5.338c-3.767,0.99-7.222,1.488-10.357,1.488
				c-7.847,0-14.462-2.011-19.851-6.04c-5.389-4.023-8.818-10.12-10.28-18.281l14.749-3.295c0.837,4.182,2.567,7.483,5.178,9.884
				c2.618,2.407,6.015,3.614,10.203,3.614c3.767,0,6.768-0.734,9.022-2.203c2.248-1.462,4.004-3.371,5.255-5.727
				c1.258-2.35,2.094-5.044,2.509-8.077c0.421-3.033,0.632-6.123,0.632-9.258V433.013z"/>
			<path style="fill:#FFFFFF;" d="M1874.137,478.832c3.978-3.659,8.581-6.404,13.811-8.237c5.229-1.826,10.459-2.746,15.694-2.746
				c5.434,0,10.12,0.683,14.041,2.043c3.927,1.36,7.139,3.193,9.654,5.491c2.509,2.299,4.361,4.942,5.568,7.924
				c1.2,2.982,1.807,6.091,1.807,9.335v37.972c0,2.618,0.051,5.025,0.153,7.222c0.102,2.196,0.262,4.291,0.472,6.276h-12.553
				c-0.313-3.767-0.472-7.534-0.472-11.295h-0.313c-3.141,4.808-6.851,8.211-11.142,10.197c-4.291,1.986-9.258,2.982-14.909,2.982
				c-3.448,0-6.743-0.473-9.884-1.411c-3.135-0.945-5.887-2.356-8.237-4.24c-2.356-1.884-4.214-4.208-5.574-6.979
				c-1.36-2.771-2.037-5.989-2.037-9.654c0-4.808,1.073-8.837,3.218-12.081c2.139-3.244,5.07-5.887,8.786-7.924
				c3.71-2.043,8.052-3.505,13.026-4.393c4.968-0.888,10.28-1.335,15.924-1.335h10.357v-3.142c0-1.884-0.364-3.767-1.098-5.651
				c-0.734-1.884-1.833-3.582-3.295-5.095c-1.462-1.52-3.295-2.72-5.491-3.614c-2.197-0.888-4.814-1.328-7.847-1.328
				c-2.72,0-5.102,0.262-7.139,0.779c-2.043,0.53-3.901,1.181-5.568,1.967c-1.679,0.779-3.193,1.699-4.553,2.746
				c-1.36,1.047-2.669,2.037-3.927,2.982L1874.137,478.832z M1913.999,508.338c-3.352,0-6.775,0.179-10.28,0.549
				c-3.505,0.364-6.698,1.073-9.571,2.113c-2.88,1.047-5.236,2.516-7.062,4.399c-1.833,1.884-2.746,4.291-2.746,7.215
				c0,4.291,1.437,7.375,4.316,9.258c2.873,1.884,6.768,2.822,11.691,2.822c3.863,0,7.164-0.651,9.884-1.96
				c2.72-1.303,4.917-3.007,6.589-5.095c1.673-2.094,2.873-4.419,3.608-6.985c0.734-2.56,1.098-5.102,1.098-7.611v-4.706H1913.999z"
				/>
			<path style="fill:#FFFFFF;" d="M1946.314,469.733h16.32l22.284,56.961l21.339-56.961h15.069l-29.186,74.38h-15.535
				L1946.314,469.733z"/>
			<path style="fill:#FFFFFF;" d="M2034.032,478.832c3.978-3.659,8.582-6.404,13.811-8.237c5.229-1.826,10.459-2.746,15.695-2.746
				c5.434,0,10.12,0.683,14.041,2.043c3.927,1.36,7.138,3.193,9.654,5.491c2.509,2.299,4.361,4.942,5.568,7.924
				c1.2,2.982,1.807,6.091,1.807,9.335v37.972c0,2.618,0.051,5.025,0.153,7.222c0.102,2.196,0.262,4.291,0.473,6.276h-12.553
				c-0.313-3.767-0.472-7.534-0.472-11.295h-0.313c-3.142,4.808-6.851,8.211-11.142,10.197c-4.291,1.986-9.258,2.982-14.909,2.982
				c-3.448,0-6.743-0.473-9.884-1.411c-3.135-0.945-5.887-2.356-8.237-4.24c-2.356-1.884-4.214-4.208-5.574-6.979
				c-1.36-2.771-2.037-5.989-2.037-9.654c0-4.808,1.073-8.837,3.218-12.081c2.139-3.244,5.07-5.887,8.786-7.924
				c3.71-2.043,8.052-3.505,13.026-4.393c4.968-0.888,10.28-1.335,15.925-1.335h10.356v-3.142c0-1.884-0.364-3.767-1.098-5.651
				c-0.734-1.884-1.833-3.582-3.295-5.095c-1.462-1.52-3.295-2.72-5.491-3.614c-2.197-0.888-4.814-1.328-7.847-1.328
				c-2.72,0-5.102,0.262-7.139,0.779c-2.043,0.53-3.901,1.181-5.568,1.967c-1.679,0.779-3.193,1.699-4.553,2.746
				c-1.36,1.047-2.669,2.037-3.927,2.982L2034.032,478.832z M2073.894,508.338c-3.352,0-6.775,0.179-10.28,0.549
				c-3.505,0.364-6.698,1.073-9.571,2.113c-2.88,1.047-5.236,2.516-7.062,4.399c-1.832,1.884-2.746,4.291-2.746,7.215
				c0,4.291,1.437,7.375,4.316,9.258c2.873,1.884,6.768,2.822,11.691,2.822c3.863,0,7.164-0.651,9.884-1.96
				c2.72-1.303,4.917-3.007,6.589-5.095c1.673-2.094,2.873-4.419,3.608-6.985c0.734-2.56,1.098-5.102,1.098-7.611v-4.706H2073.894z"
				/>
		</g>
	</g>
	<g style="opacity:0.5;">
		<g>
			<path style="fill:#6ADB6A;" d="M4130.8,728.001c0,159.839,129.588,289.274,289.276,289.274
				c159.688,0,289.274-129.436,289.274-289.274c0-95.723-46.506-180.609-118.299-233.135l-33.563,45.754
				c57.644,42.443,95.12,110.622,95.12,187.382c0,128.232-104.302,232.534-232.533,232.534
				c-128.233,0-232.535-104.302-232.535-232.534c0-128.082,104.302-232.383,232.535-232.383v-56.741
				C4260.388,438.877,4130.8,568.313,4130.8,728.001z"/>
			<path style="fill:#98EB98;" d="M4187.541,728.001c0,128.232,104.302,232.534,232.535,232.534
				c128.23,0,232.533-104.302,232.533-232.534c0-76.759-37.476-144.938-95.12-187.382l-37.476,51.022
				c41.841,30.854,69.082,80.521,69.082,136.359c0,93.164-75.854,169.019-169.019,169.019c-93.165,0-169.021-75.855-169.021-169.019
				s75.856-169.02,169.021-169.02v-63.363C4291.843,495.618,4187.541,599.92,4187.541,728.001z"/>
			<path style="fill:#BBDBF3;" d="M4420.076,438.877v56.741c51.323,0,98.882,16.706,137.413,45.001l33.563-45.754
				C4543.192,459.647,4484.042,438.877,4420.076,438.877z"/>
			<path style="fill:#E5F0F8;" d="M4420.076,495.618v63.363c37.325,0,71.941,12.191,99.937,32.661l37.476-51.022
				C4518.958,512.324,4471.399,495.618,4420.076,495.618z"/>
		</g>
		<path style="fill:#6ADB6A;" d="M4277.854,766.149h283.557c4.165,0,7.635-3.873,7.864-8.851
			c0.859-18.758,5.726-44.343-20.995-56.189c-26.885-11.918-54.048,1.521-54.048,1.521s-4.129-63.63-66.747-63.519
			c-57.649,0.103-83.478,58.672-83.478,58.672s-50.323-19.016-73.518,55.558C4268.564,759.534,4272.335,766.149,4277.854,766.149z"
			/>
	</g>
	<g>
		<path style="fill:#93ACBF;" d="M3431.441,1606.727l861.327,26.39c63.675,1.951,123.794,29.813,166.441,77.138l219.434,243.506
			c9.027,10.017,3.316,26.053-10.01,28.11l-13.902,2.146c-14.872,2.296-29.844-3.488-39.311-15.185l-173.915-214.89
			c-44.313-54.753-110.958-86.597-181.396-86.672l-877.14-0.944L3431.441,1606.727z"/>
		<path style="fill:#93ACBF;" d="M4602.103,1606.727l-861.327,26.39c-63.676,1.951-123.794,29.813-166.441,77.138l-219.434,243.506
			c-9.027,10.017-3.316,26.053,10.01,28.11l13.902,2.146c14.872,2.296,29.844-3.488,39.311-15.185l173.915-214.89
			c44.313-54.753,110.958-86.597,181.396-86.672l877.14-0.944L4602.103,1606.727z"/>
		<path style="fill:#586773;" d="M4718.563,1618.932c-20.491-3.416-65.147-12.921-101.56-35.086
			c-48.955-29.799-148.993-65.983-243.71-62.79s-151.654,19.688-189.966,48.955c-38.313,29.267-47.359,31.927-79.818,26.606
			c-32.459-5.321-86.736-5.321-86.736-5.321s-54.276,0-86.735,5.321c-32.459,5.321-41.505,2.661-79.818-26.606
			c-38.313-29.266-95.249-45.762-189.966-48.955s-194.756,32.991-243.71,62.79c-36.413,22.164-81.069,31.67-101.56,35.086
			c-6.507,1.085-11.249,6.727-11.249,13.324v21.416c0,6.791,5.026,12.581,11.768,13.402c15.243,1.856,41.153,8.248,52.087,30.115
			c15.964,31.927,24.478,134.094,88.332,204.334c63.854,70.24,142.608,111.745,272.445,81.946
			c129.837-29.798,177.728-144.736,195.82-200.077c18.092-55.34,18.624-91.525,18.624-91.525s-18.624-17.56-9.046-34.588
			c9.578-17.028,83.01-17.56,83.01-17.56s73.432,0.532,83.01,17.56c9.579,17.028-9.046,34.588-9.046,34.588
			s0.532,36.184,18.625,91.525c18.092,55.34,65.982,170.278,195.819,200.077c129.837,29.799,208.591-11.706,272.445-81.946
			c63.854-70.24,72.368-172.406,88.332-204.334c10.934-21.867,36.844-28.258,52.086-30.115c6.741-0.821,11.768-6.611,11.768-13.402
			v-21.416C4729.812,1625.659,4725.07,1620.016,4718.563,1618.932z"/>
		<g>
			<defs>
				<path id="SVGID_1_" d="M3669.476,1537.552c70.948,0.292,191.563,36.894,221.361,127.708
					c29.799,90.815-7.095,296.568-221.361,306.5s-268.188-224.199-236.97-303.662
					C3463.723,1588.635,3527.223,1536.966,3669.476,1537.552z"/>
			</defs>
			<use xlink:href="#SVGID_1_"  style="overflow:visible;fill:#E5F0F8;"/>
			<clipPath id="SVGID_00000035524205966355242230000011269878239819961218_">
				<use xlink:href="#SVGID_1_"  style="overflow:visible;"/>
			</clipPath>
			<g style="clip-path:url(#SVGID_00000035524205966355242230000011269878239819961218_);">
				<polygon style="fill:#93ACBF;" points="3606.99,1612.083 3570.621,1666.484 3382.988,1666.299 3431.419,1606.729 				"/>
				<polygon style="fill:#93ACBF;" points="3706.499,1615.16 3689.638,1640.391 3672.099,1666.607 3637.206,1666.607 
					3643.052,1657.868 3672.283,1614.114 				"/>
				<path style="fill:#6DA8C6;" d="M3368.587,1968.825l22.77,15.2c-4.123,0.615-8.308,0.615-12.554,0l-13.908-2.154
					c-13.293-2.031-19.016-18.093-9.969-28.123l91.939-102.032L3368.587,1968.825z"/>
				<path style="fill:#93ACBF;" d="M3689.638,1640.391l-17.539,26.216l-25.6,38.277v0.062
					c-20.431,13.17-38.831,29.662-54.462,48.985l-75.877,93.724l121.047-181.048l5.846-8.738
					C3657.883,1650.36,3673.514,1644.514,3689.638,1640.391z"/>
				<path style="fill:#93ACBF;" d="M4650.571,1666.299l-244.188,0.246h-0.123l-389.481,0.493h-17.354l-225.972,0.246
					c-21.169,0-42.093,2.892-62.093,8.492l6.092-9.108l22.401-33.477c0.307-0.062,0.615-0.062,0.923-0.062l275.264-8.431h0.739
					l585.299-17.969L4650.571,1666.299z"/>
				<polygon style="fill:#FFFFFF;" points="3782.5,1449.25 3672.283,1614.114 3606.99,1612.083 3736.407,1418.481 				"/>
				<path style="fill:#F2FDFF;" d="M3516.035,1847.84l-101.416,151.755l-23.262-15.569c10.338-1.477,19.938-6.831,26.77-15.2
					L3516.035,1847.84z"/>
				<path style="fill:#FFFFFF;" d="M3627.237,1666.545c-19.508,11.754-37.416,26.462-52.924,43.693l-127.386,141.417
					l123.694-185.172L3627.237,1666.545z"/>
				<polygon style="fill:#FFFFFF;" points="3834.255,1491.897 3750.992,1616.514 3706.499,1615.16 3802.931,1470.912 				"/>
				<path style="fill:#BBDBF3;" d="M3750.992,1616.514l-11.138,16.677l-22.401,33.477l-6.092,9.108
					c-23.015,6.339-44.923,16.185-64.862,29.108l25.6-38.277l17.539-26.216l16.862-25.231L3750.992,1616.514z"/>
				<path style="fill:#FFFFFF;" d="M3711.361,1675.776l-244.926,366.466l-31.385-20.985l211.448-316.311v-0.062
					C3666.437,1691.961,3688.345,1682.115,3711.361,1675.776z"/>
				<path style="fill:#BBDBF3;" d="M3672.283,1614.114l-29.231,43.755l-5.846,8.738l-121.047,181.048l-0.123,0.185l-97.909,120.986
					c-6.831,8.369-16.431,13.723-26.77,15.2l-22.77-15.2l78.278-117.109l0.062-0.062l127.386-141.417
					c15.508-17.231,33.416-31.939,52.924-43.693l-56.616-0.062l36.369-54.4L3672.283,1614.114z"/>
				<path style="fill:#93ACBF;" d="M4668.602,1981.872l-13.846,2.154c-14.893,2.277-29.846-3.508-39.323-15.2l-173.91-214.895
					c-44.308-54.77-110.955-86.586-181.418-86.647l-243.325-0.246h-17.354l-281.973-0.369l22.401-33.477l11.138-16.677
					l265.049,8.185h0.739l276.003,8.431c40.431,1.231,79.447,12.923,113.478,33.416h0.123
					c19.508,11.877,37.231,26.462,52.801,43.693l219.449,243.51C4687.68,1963.779,4681.957,1979.841,4668.602,1981.872z"/>
			</g>
		</g>
		<path style="fill:#E5F0F8;" d="M4364.068,1537.552c-70.948,0.292-191.563,36.894-221.361,127.708
			c-29.798,90.815,7.095,296.568,221.361,306.5s268.188-224.199,236.971-303.662
			C4569.821,1588.635,4506.322,1536.966,4364.068,1537.552z"/>
		<circle style="fill:#93ACBF;" cx="3343.819" cy="1646.104" r="9.933"/>
		<g>
			<defs>
				<path id="SVGID_00000113347937592401505730000001682714461458136996_" d="M4364.068,1537.552
					c-70.948,0.292-191.563,36.894-221.361,127.708c-29.798,90.815,7.095,296.568,221.361,306.5s268.188-224.199,236.971-303.662
					C4569.821,1588.635,4506.322,1536.966,4364.068,1537.552z"/>
			</defs>
			<clipPath id="SVGID_00000075851685068494770200000017233767416398354606_">
				<use xlink:href="#SVGID_00000113347937592401505730000001682714461458136996_"  style="overflow:visible;"/>
			</clipPath>
			<g style="clip-path:url(#SVGID_00000075851685068494770200000017233767416398354606_);">
				<path style="fill:#93ACBF;" d="M4668.602,1981.872l-13.846,2.154c-14.893,2.277-29.846-3.508-39.323-15.2l-173.91-214.895
					c-15.508-19.139-33.724-35.447-53.847-48.616l23.815-35.508h0.062c17.477,11.261,33.478,24.739,47.631,40.431l219.449,243.51
					C4687.68,1963.779,4681.957,1979.841,4668.602,1981.872z"/>
				<path style="fill:#93ACBF;" d="M4309.706,1615.714l-11.877,17.6l-22.461,33.416l-258.588,0.308l-389.543-0.493
					c34.031-20.493,73.047-32.185,113.54-33.416l276.003-8.431L4309.706,1615.714z"/>
				<path style="fill:#93ACBF;" d="M4412.538,1612.514l-28.431,42.278l-7.938,11.815l-15.754,23.385
					c-9.231-4.369-18.77-8.185-28.493-11.323l8.123-12l15.446-22.954l20.185-30.031L4412.538,1612.514z"/>
				<polygon style="fill:#93ACBF;" points="4650.571,1666.299 4413.707,1666.545 4450.876,1611.345 4602.079,1606.729 				"/>
				<path style="fill:#BBDBF3;" d="M4375.676,1613.683l-20.185,30.031l-15.446,22.954l-8.123,12
					c-18.4-5.969-37.662-9.723-57.232-10.892l0.677-1.046l22.461-33.416l11.877-17.6L4375.676,1613.683z"/>
				<path style="fill:#FFFFFF;" d="M4274.69,1667.776c19.57,1.169,38.832,4.923,57.232,10.892l-192.433,285.973l-44.431-29.908
					L4274.69,1667.776z"/>
				<polygon style="fill:#FFFFFF;" points="4455.923,1494.42 4375.676,1613.683 4309.706,1615.714 4411.43,1464.512 				"/>
				<path style="fill:#BBDBF3;" d="M4413.707,1666.545h-7.446c1.723,1.108,3.508,2.154,5.231,3.262l-23.815,35.508
					c-8.739-5.723-17.847-10.831-27.262-15.323l15.754-23.385l7.938-11.815l28.431-42.278l38.338-1.169L4413.707,1666.545z"/>
				<path style="fill:#FFFFFF;" d="M4360.415,1689.992c9.415,4.492,18.523,9.6,27.262,15.323l-187.879,279.203l-25.847-17.354
					L4360.415,1689.992z"/>
				<path style="fill:#DEECFF;" d="M4406.261,1666.545h7.446l-2.154,3.262h-0.062
					C4409.769,1668.699,4407.984,1667.653,4406.261,1666.545z"/>
				<polygon style="fill:#FFFFFF;" points="4516.17,1514.297 4450.876,1611.345 4412.538,1612.514 4490.323,1496.882 				"/>
			</g>
		</g>
		<circle style="fill:#93ACBF;" cx="3392.902" cy="1646.104" r="9.933"/>
		<circle style="fill:#93ACBF;" cx="4689.725" cy="1646.104" r="9.933"/>
		<circle style="fill:#93ACBF;" cx="4640.643" cy="1646.104" r="9.933"/>
	</g>
	<g>
		<path style="fill:#0775EF;" d="M2447.725,1993.237H1055.832c-4.54,0-8.221-3.681-8.221-8.221V1465.29
			c0-4.54,3.681-8.221,8.221-8.221h1391.893c4.54,0,8.221,3.681,8.221,8.221v519.726
			C2455.946,1989.556,2452.265,1993.237,2447.725,1993.237z"/>
		<path style="fill:#2EC6FC;" d="M2483.938,1993.237H1092.045c-4.541,0-8.221-3.681-8.221-8.221V1465.29
			c0-4.54,3.681-8.221,8.221-8.221h1391.893c4.541,0,8.221,3.681,8.221,8.221v519.726
			C2492.159,1989.556,2488.479,1993.237,2483.938,1993.237z"/>
		<g>
			<path style="fill:#0775EF;" d="M1201.245,1588.966h-53.259c-4.639,0-8.4-3.761-8.4-8.4v-53.259c0-4.639,3.761-8.4,8.4-8.4h53.259
				c4.639,0,8.4,3.761,8.4,8.4v53.259C1209.645,1585.205,1205.884,1588.966,1201.245,1588.966z"/>
			<path style="fill:#0775EF;" d="M1312.768,1588.966h-53.259c-4.639,0-8.4-3.761-8.4-8.4v-53.259c0-4.639,3.761-8.4,8.4-8.4h53.259
				c4.639,0,8.4,3.761,8.4,8.4v53.259C1321.168,1585.205,1317.407,1588.966,1312.768,1588.966z"/>
			<path style="fill:#0775EF;" d="M1424.291,1588.966h-53.259c-4.639,0-8.4-3.761-8.4-8.4v-53.259c0-4.639,3.761-8.4,8.4-8.4h53.259
				c4.639,0,8.4,3.761,8.4,8.4v53.259C1432.691,1585.205,1428.93,1588.966,1424.291,1588.966z"/>
			<path style="fill:#0775EF;" d="M1535.814,1588.966h-53.259c-4.639,0-8.4-3.761-8.4-8.4v-53.259c0-4.639,3.761-8.4,8.4-8.4h53.259
				c4.639,0,8.4,3.761,8.4,8.4v53.259C1544.214,1585.205,1540.453,1588.966,1535.814,1588.966z"/>
			<path style="fill:#0775EF;" d="M1647.337,1588.966h-53.259c-4.639,0-8.4-3.761-8.4-8.4v-53.259c0-4.639,3.761-8.4,8.4-8.4h53.259
				c4.639,0,8.4,3.761,8.4,8.4v53.259C1655.737,1585.205,1651.976,1588.966,1647.337,1588.966z"/>
			<path style="fill:#0775EF;" d="M1758.86,1588.966h-53.259c-4.639,0-8.4-3.761-8.4-8.4v-53.259c0-4.639,3.761-8.4,8.4-8.4h53.259
				c4.639,0,8.4,3.761,8.4,8.4v53.259C1767.26,1585.205,1763.499,1588.966,1758.86,1588.966z"/>
			<path style="fill:#0775EF;" d="M1870.383,1588.966h-53.259c-4.639,0-8.4-3.761-8.4-8.4v-53.259c0-4.639,3.761-8.4,8.4-8.4h53.259
				c4.639,0,8.4,3.761,8.4,8.4v53.259C1878.783,1585.205,1875.022,1588.966,1870.383,1588.966z"/>
			<path style="fill:#0775EF;" d="M1981.906,1588.966h-53.259c-4.639,0-8.4-3.761-8.4-8.4v-53.259c0-4.639,3.761-8.4,8.4-8.4h53.259
				c4.639,0,8.4,3.761,8.4,8.4v53.259C1990.306,1585.205,1986.545,1588.966,1981.906,1588.966z"/>
			<path style="fill:#0775EF;" d="M2093.429,1588.966h-53.259c-4.639,0-8.4-3.761-8.4-8.4v-53.259c0-4.639,3.761-8.4,8.4-8.4h53.259
				c4.639,0,8.4,3.761,8.4,8.4v53.259C2101.829,1585.205,2098.068,1588.966,2093.429,1588.966z"/>
			<path style="fill:#0775EF;" d="M2204.952,1588.966h-53.259c-4.639,0-8.4-3.761-8.4-8.4v-53.259c0-4.639,3.761-8.4,8.4-8.4h53.259
				c4.639,0,8.4,3.761,8.4,8.4v53.259C2213.352,1585.205,2209.591,1588.966,2204.952,1588.966z"/>
			<path style="fill:#0775EF;" d="M2316.475,1588.966h-53.26c-4.639,0-8.4-3.761-8.4-8.4v-53.259c0-4.639,3.761-8.4,8.4-8.4h53.26
				c4.639,0,8.4,3.761,8.4,8.4v53.259C2324.875,1585.205,2321.114,1588.966,2316.475,1588.966z"/>
			<path style="fill:#0775EF;" d="M2427.998,1588.966h-53.26c-4.639,0-8.4-3.761-8.4-8.4v-53.259c0-4.639,3.761-8.4,8.4-8.4h53.26
				c4.639,0,8.4,3.761,8.4,8.4v53.259C2436.398,1585.205,2432.637,1588.966,2427.998,1588.966z"/>
			<path style="fill:#0775EF;" d="M1307.645,1701.383h-154.536c-7.469,0-13.523-6.055-13.523-13.523v-43.013
				c0-7.469,6.055-13.523,13.523-13.523h154.536c7.469,0,13.523,6.055,13.523,13.523v43.013
				C1321.168,1695.328,1315.113,1701.383,1307.645,1701.383z"/>
			<path style="fill:#0775EF;" d="M1424.291,1701.383h-53.259c-4.639,0-8.4-3.761-8.4-8.4v-53.259c0-4.639,3.761-8.4,8.4-8.4h53.259
				c4.639,0,8.4,3.761,8.4,8.4v53.259C1432.691,1697.622,1428.93,1701.383,1424.291,1701.383z"/>
			<path style="fill:#0775EF;" d="M1535.814,1701.383h-53.259c-4.639,0-8.4-3.761-8.4-8.4v-53.259c0-4.639,3.761-8.4,8.4-8.4h53.259
				c4.639,0,8.4,3.761,8.4,8.4v53.259C1544.214,1697.622,1540.453,1701.383,1535.814,1701.383z"/>
			<path style="fill:#0775EF;" d="M1647.337,1701.383h-53.259c-4.639,0-8.4-3.761-8.4-8.4v-53.259c0-4.639,3.761-8.4,8.4-8.4h53.259
				c4.639,0,8.4,3.761,8.4,8.4v53.259C1655.737,1697.622,1651.976,1701.383,1647.337,1701.383z"/>
			<path style="fill:#0775EF;" d="M1758.86,1701.383h-53.259c-4.639,0-8.4-3.761-8.4-8.4v-53.259c0-4.639,3.761-8.4,8.4-8.4h53.259
				c4.639,0,8.4,3.761,8.4,8.4v53.259C1767.26,1697.622,1763.499,1701.383,1758.86,1701.383z"/>
			<path style="fill:#0775EF;" d="M1870.383,1701.383h-53.259c-4.639,0-8.4-3.761-8.4-8.4v-53.259c0-4.639,3.761-8.4,8.4-8.4h53.259
				c4.639,0,8.4,3.761,8.4,8.4v53.259C1878.783,1697.622,1875.022,1701.383,1870.383,1701.383z"/>
			<path style="fill:#0775EF;" d="M1981.906,1701.383h-53.259c-4.639,0-8.4-3.761-8.4-8.4v-53.259c0-4.639,3.761-8.4,8.4-8.4h53.259
				c4.639,0,8.4,3.761,8.4,8.4v53.259C1990.306,1697.622,1986.545,1701.383,1981.906,1701.383z"/>
			<path style="fill:#0775EF;" d="M2093.429,1701.383h-53.259c-4.639,0-8.4-3.761-8.4-8.4v-53.259c0-4.639,3.761-8.4,8.4-8.4h53.259
				c4.639,0,8.4,3.761,8.4,8.4v53.259C2101.829,1697.622,2098.068,1701.383,2093.429,1701.383z"/>
			<path style="fill:#0775EF;" d="M2316.475,1701.383h-53.26c-4.639,0-8.4-3.761-8.4-8.4v-53.259c0-4.639,3.761-8.4,8.4-8.4h53.26
				c4.639,0,8.4,3.761,8.4,8.4v53.259C2324.875,1697.622,2321.114,1701.383,2316.475,1701.383z"/>
			<path style="fill:#0775EF;" d="M2427.998,1701.383h-53.26c-4.639,0-8.4-3.761-8.4-8.4v-53.259c0-4.639,3.761-8.4,8.4-8.4h53.26
				c4.639,0,8.4,3.761,8.4,8.4v53.259C2436.398,1697.622,2432.637,1701.383,2427.998,1701.383z"/>
			<path style="fill:#0775EF;" d="M1415.51,1813.799h-258.743c-9.489,0-17.181-7.692-17.181-17.181v-35.697
				c0-9.489,7.692-17.181,17.181-17.181h258.743c9.489,0,17.181,7.692,17.181,17.181v35.697
				C1432.691,1806.107,1424.999,1813.799,1415.51,1813.799z"/>
			<path style="fill:#0775EF;" d="M1535.814,1813.799h-53.259c-4.639,0-8.4-3.761-8.4-8.4v-53.259c0-4.639,3.761-8.4,8.4-8.4h53.259
				c4.639,0,8.4,3.761,8.4,8.4v53.259C1544.214,1810.039,1540.453,1813.799,1535.814,1813.799z"/>
			<path style="fill:#0775EF;" d="M1647.337,1813.799h-53.259c-4.639,0-8.4-3.761-8.4-8.4v-53.259c0-4.639,3.761-8.4,8.4-8.4h53.259
				c4.639,0,8.4,3.761,8.4,8.4v53.259C1655.737,1810.039,1651.976,1813.799,1647.337,1813.799z"/>
			<path style="fill:#0775EF;" d="M1758.86,1813.799h-53.259c-4.639,0-8.4-3.761-8.4-8.4v-53.259c0-4.639,3.761-8.4,8.4-8.4h53.259
				c4.639,0,8.4,3.761,8.4,8.4v53.259C1767.26,1810.039,1763.499,1813.799,1758.86,1813.799z"/>
			<path style="fill:#0775EF;" d="M1870.383,1813.799h-53.259c-4.639,0-8.4-3.761-8.4-8.4v-53.259c0-4.639,3.761-8.4,8.4-8.4h53.259
				c4.639,0,8.4,3.761,8.4,8.4v53.259C1878.783,1810.039,1875.022,1813.799,1870.383,1813.799z"/>
			<path style="fill:#0775EF;" d="M1981.906,1813.799h-53.259c-4.639,0-8.4-3.761-8.4-8.4v-53.259c0-4.639,3.761-8.4,8.4-8.4h53.259
				c4.639,0,8.4,3.761,8.4,8.4v53.259C1990.306,1810.039,1986.545,1813.799,1981.906,1813.799z"/>
			<path style="fill:#0775EF;" d="M2199.796,1631.323h-42.946c-7.487,0-13.557,6.07-13.557,13.556v98.86h-98.696
				c-7.084,0-12.827,5.743-12.827,12.827v44.406c0,7.084,5.743,12.827,12.827,12.827h112.253h25.447h17.5
				c7.487,0,13.556-6.07,13.556-13.557V1644.88C2213.352,1637.393,2207.282,1631.323,2199.796,1631.323z"/>
			<path style="fill:#0775EF;" d="M2316.475,1813.799h-53.26c-4.639,0-8.4-3.761-8.4-8.4v-53.259c0-4.639,3.761-8.4,8.4-8.4h53.26
				c4.639,0,8.4,3.761,8.4,8.4v53.259C2324.875,1810.039,2321.114,1813.799,2316.475,1813.799z"/>
			<path style="fill:#0775EF;" d="M2422.842,1926.216h-42.946c-7.487,0-13.557-6.069-13.557-13.557v-155.363
				c0-7.487,6.07-13.557,13.557-13.557h42.946c7.487,0,13.556,6.069,13.556,13.557v155.363
				C2436.398,1920.147,2430.329,1926.216,2422.842,1926.216z"/>
			<path style="fill:#0775EF;" d="M1201.245,1926.216h-53.259c-4.639,0-8.4-3.761-8.4-8.4v-53.259c0-4.639,3.761-8.4,8.4-8.4h53.259
				c4.639,0,8.4,3.761,8.4,8.4v53.259C1209.645,1922.455,1205.884,1926.216,1201.245,1926.216z"/>
			<path style="fill:#0775EF;" d="M1312.768,1926.216h-53.259c-4.639,0-8.4-3.761-8.4-8.4v-53.259c0-4.639,3.761-8.4,8.4-8.4h53.259
				c4.639,0,8.4,3.761,8.4,8.4v53.259C1321.168,1922.455,1317.407,1926.216,1312.768,1926.216z"/>
			<path style="fill:#0775EF;" d="M1424.291,1926.216h-53.259c-4.639,0-8.4-3.761-8.4-8.4v-53.259c0-4.639,3.761-8.4,8.4-8.4h53.259
				c4.639,0,8.4,3.761,8.4,8.4v53.259C1432.691,1922.455,1428.93,1926.216,1424.291,1926.216z"/>
			<path style="fill:#0775EF;" d="M1858.596,1926.216h-364.254c-11.149,0-20.187-9.038-20.187-20.187v-29.685
				c0-11.149,9.038-20.187,20.187-20.187h364.254c11.149,0,20.187,9.038,20.187,20.187v29.685
				C1878.783,1917.178,1869.745,1926.216,1858.596,1926.216z"/>
			<path style="fill:#0775EF;" d="M1981.906,1926.216h-53.259c-4.639,0-8.4-3.761-8.4-8.4v-53.259c0-4.639,3.761-8.4,8.4-8.4h53.259
				c4.639,0,8.4,3.761,8.4,8.4v53.259C1990.306,1922.455,1986.545,1926.216,1981.906,1926.216z"/>
			<path style="fill:#0775EF;" d="M2093.429,1926.216h-53.259c-4.639,0-8.4-3.761-8.4-8.4v-53.259c0-4.639,3.761-8.4,8.4-8.4h53.259
				c4.639,0,8.4,3.761,8.4,8.4v53.259C2101.829,1922.455,2098.068,1926.216,2093.429,1926.216z"/>
			<path style="fill:#0775EF;" d="M2204.952,1926.216h-53.259c-4.639,0-8.4-3.761-8.4-8.4v-53.259c0-4.639,3.761-8.4,8.4-8.4h53.259
				c4.639,0,8.4,3.761,8.4,8.4v53.259C2213.352,1922.455,2209.591,1926.216,2204.952,1926.216z"/>
			<path style="fill:#0775EF;" d="M2316.475,1926.216h-53.26c-4.639,0-8.4-3.761-8.4-8.4v-53.259c0-4.639,3.761-8.4,8.4-8.4h53.26
				c4.639,0,8.4,3.761,8.4,8.4v53.259C2324.875,1922.455,2321.114,1926.216,2316.475,1926.216z"/>
		</g>
		<g>
			<path style="fill:#088CFC;" d="M1209.641,1588.966h-53.259c-4.639,0-8.4-3.761-8.4-8.4v-53.259c0-4.639,3.761-8.4,8.4-8.4h53.259
				c4.639,0,8.4,3.761,8.4,8.4v53.259C1218.041,1585.205,1214.281,1588.966,1209.641,1588.966z"/>
			<path style="fill:#088CFC;" d="M1321.165,1588.966h-53.259c-4.639,0-8.4-3.761-8.4-8.4v-53.259c0-4.639,3.761-8.4,8.4-8.4h53.259
				c4.639,0,8.4,3.761,8.4,8.4v53.259C1329.564,1585.205,1325.804,1588.966,1321.165,1588.966z"/>
			<path style="fill:#088CFC;" d="M1432.688,1588.966h-53.259c-4.639,0-8.4-3.761-8.4-8.4v-53.259c0-4.639,3.761-8.4,8.4-8.4h53.259
				c4.639,0,8.4,3.761,8.4,8.4v53.259C1441.088,1585.205,1437.327,1588.966,1432.688,1588.966z"/>
			<path style="fill:#088CFC;" d="M1544.21,1588.966h-53.259c-4.639,0-8.4-3.761-8.4-8.4v-53.259c0-4.639,3.761-8.4,8.4-8.4h53.259
				c4.639,0,8.4,3.761,8.4,8.4v53.259C1552.61,1585.205,1548.85,1588.966,1544.21,1588.966z"/>
			<path style="fill:#088CFC;" d="M1655.734,1588.966h-53.259c-4.639,0-8.4-3.761-8.4-8.4v-53.259c0-4.639,3.761-8.4,8.4-8.4h53.259
				c4.639,0,8.4,3.761,8.4,8.4v53.259C1664.134,1585.205,1660.373,1588.966,1655.734,1588.966z"/>
			<path style="fill:#088CFC;" d="M1767.256,1588.966h-53.259c-4.639,0-8.4-3.761-8.4-8.4v-53.259c0-4.639,3.761-8.4,8.4-8.4h53.259
				c4.639,0,8.4,3.761,8.4,8.4v53.259C1775.656,1585.205,1771.896,1588.966,1767.256,1588.966z"/>
			<path style="fill:#088CFC;" d="M1878.78,1588.966h-53.259c-4.639,0-8.4-3.761-8.4-8.4v-53.259c0-4.639,3.761-8.4,8.4-8.4h53.259
				c4.639,0,8.4,3.761,8.4,8.4v53.259C1887.179,1585.205,1883.419,1588.966,1878.78,1588.966z"/>
			<path style="fill:#088CFC;" d="M1990.302,1588.966h-53.259c-4.639,0-8.4-3.761-8.4-8.4v-53.259c0-4.639,3.761-8.4,8.4-8.4h53.259
				c4.639,0,8.4,3.761,8.4,8.4v53.259C1998.703,1585.205,1994.942,1588.966,1990.302,1588.966z"/>
			<path style="fill:#088CFC;" d="M2101.826,1588.966h-53.26c-4.639,0-8.4-3.761-8.4-8.4v-53.259c0-4.639,3.761-8.4,8.4-8.4h53.26
				c4.639,0,8.4,3.761,8.4,8.4v53.259C2110.226,1585.205,2106.465,1588.966,2101.826,1588.966z"/>
			<path style="fill:#088CFC;" d="M2213.349,1588.966h-53.26c-4.639,0-8.4-3.761-8.4-8.4v-53.259c0-4.639,3.761-8.4,8.4-8.4h53.26
				c4.639,0,8.4,3.761,8.4,8.4v53.259C2221.749,1585.205,2217.988,1588.966,2213.349,1588.966z"/>
			<path style="fill:#088CFC;" d="M2324.872,1588.966h-53.259c-4.639,0-8.4-3.761-8.4-8.4v-53.259c0-4.639,3.761-8.4,8.4-8.4h53.259
				c4.639,0,8.4,3.761,8.4,8.4v53.259C2333.271,1585.205,2329.511,1588.966,2324.872,1588.966z"/>
			<path style="fill:#088CFC;" d="M2436.395,1588.966h-53.259c-4.639,0-8.4-3.761-8.4-8.4v-53.259c0-4.639,3.761-8.4,8.4-8.4h53.259
				c4.639,0,8.4,3.761,8.4,8.4v53.259C2444.795,1585.205,2441.034,1588.966,2436.395,1588.966z"/>
			<path style="fill:#088CFC;" d="M1316.041,1701.383h-154.536c-7.469,0-13.523-6.055-13.523-13.523v-43.013
				c0-7.469,6.055-13.523,13.523-13.523h154.536c7.469,0,13.523,6.055,13.523,13.523v43.013
				C1329.564,1695.328,1323.51,1701.383,1316.041,1701.383z"/>
			<path style="fill:#088CFC;" d="M1432.688,1701.383h-53.259c-4.639,0-8.4-3.761-8.4-8.4v-53.259c0-4.639,3.761-8.4,8.4-8.4h53.259
				c4.639,0,8.4,3.761,8.4,8.4v53.259C1441.088,1697.622,1437.327,1701.383,1432.688,1701.383z"/>
			<path style="fill:#088CFC;" d="M1544.21,1701.383h-53.259c-4.639,0-8.4-3.761-8.4-8.4v-53.259c0-4.639,3.761-8.4,8.4-8.4h53.259
				c4.639,0,8.4,3.761,8.4,8.4v53.259C1552.61,1697.622,1548.85,1701.383,1544.21,1701.383z"/>
			<path style="fill:#088CFC;" d="M1655.734,1701.383h-53.259c-4.639,0-8.4-3.761-8.4-8.4v-53.259c0-4.639,3.761-8.4,8.4-8.4h53.259
				c4.639,0,8.4,3.761,8.4,8.4v53.259C1664.134,1697.622,1660.373,1701.383,1655.734,1701.383z"/>
			<path style="fill:#088CFC;" d="M1767.256,1701.383h-53.259c-4.639,0-8.4-3.761-8.4-8.4v-53.259c0-4.639,3.761-8.4,8.4-8.4h53.259
				c4.639,0,8.4,3.761,8.4,8.4v53.259C1775.656,1697.622,1771.896,1701.383,1767.256,1701.383z"/>
			<path style="fill:#088CFC;" d="M1878.78,1701.383h-53.259c-4.639,0-8.4-3.761-8.4-8.4v-53.259c0-4.639,3.761-8.4,8.4-8.4h53.259
				c4.639,0,8.4,3.761,8.4,8.4v53.259C1887.179,1697.622,1883.419,1701.383,1878.78,1701.383z"/>
			<path style="fill:#088CFC;" d="M1990.302,1701.383h-53.259c-4.639,0-8.4-3.761-8.4-8.4v-53.259c0-4.639,3.761-8.4,8.4-8.4h53.259
				c4.639,0,8.4,3.761,8.4,8.4v53.259C1998.703,1697.622,1994.942,1701.383,1990.302,1701.383z"/>
			<path style="fill:#088CFC;" d="M2101.826,1701.383h-53.26c-4.639,0-8.4-3.761-8.4-8.4v-53.259c0-4.639,3.761-8.4,8.4-8.4h53.26
				c4.639,0,8.4,3.761,8.4,8.4v53.259C2110.226,1697.622,2106.465,1701.383,2101.826,1701.383z"/>
			<path style="fill:#088CFC;" d="M2324.872,1701.383h-53.259c-4.639,0-8.4-3.761-8.4-8.4v-53.259c0-4.639,3.761-8.4,8.4-8.4h53.259
				c4.639,0,8.4,3.761,8.4,8.4v53.259C2333.271,1697.622,2329.511,1701.383,2324.872,1701.383z"/>
			<path style="fill:#088CFC;" d="M2436.395,1701.383h-53.259c-4.639,0-8.4-3.761-8.4-8.4v-53.259c0-4.639,3.761-8.4,8.4-8.4h53.259
				c4.639,0,8.4,3.761,8.4,8.4v53.259C2444.795,1697.622,2441.034,1701.383,2436.395,1701.383z"/>
			<path style="fill:#088CFC;" d="M1423.906,1813.799h-258.743c-9.489,0-17.181-7.692-17.181-17.181v-35.697
				c0-9.489,7.692-17.181,17.181-17.181h258.743c9.489,0,17.181,7.692,17.181,17.181v35.697
				C1441.088,1806.107,1433.395,1813.799,1423.906,1813.799z"/>
			<path style="fill:#088CFC;" d="M1544.21,1813.799h-53.259c-4.639,0-8.4-3.761-8.4-8.4v-53.259c0-4.639,3.761-8.4,8.4-8.4h53.259
				c4.639,0,8.4,3.761,8.4,8.4v53.259C1552.61,1810.039,1548.85,1813.799,1544.21,1813.799z"/>
			<path style="fill:#088CFC;" d="M1655.734,1813.799h-53.259c-4.639,0-8.4-3.761-8.4-8.4v-53.259c0-4.639,3.761-8.4,8.4-8.4h53.259
				c4.639,0,8.4,3.761,8.4,8.4v53.259C1664.134,1810.039,1660.373,1813.799,1655.734,1813.799z"/>
			<path style="fill:#088CFC;" d="M1767.256,1813.799h-53.259c-4.639,0-8.4-3.761-8.4-8.4v-53.259c0-4.639,3.761-8.4,8.4-8.4h53.259
				c4.639,0,8.4,3.761,8.4,8.4v53.259C1775.656,1810.039,1771.896,1813.799,1767.256,1813.799z"/>
			<path style="fill:#088CFC;" d="M1878.78,1813.799h-53.259c-4.639,0-8.4-3.761-8.4-8.4v-53.259c0-4.639,3.761-8.4,8.4-8.4h53.259
				c4.639,0,8.4,3.761,8.4,8.4v53.259C1887.179,1810.039,1883.419,1813.799,1878.78,1813.799z"/>
			<path style="fill:#088CFC;" d="M1990.302,1813.799h-53.259c-4.639,0-8.4-3.761-8.4-8.4v-53.259c0-4.639,3.761-8.4,8.4-8.4h53.259
				c4.639,0,8.4,3.761,8.4,8.4v53.259C1998.703,1810.039,1994.942,1813.799,1990.302,1813.799z"/>
			<path style="fill:#088CFC;" d="M2208.192,1631.323h-42.946c-7.487,0-13.557,6.07-13.557,13.556v98.86h-98.696
				c-7.084,0-12.827,5.743-12.827,12.827v44.406c0,7.084,5.743,12.827,12.827,12.827h112.253h25.447h17.5
				c7.487,0,13.557-6.07,13.557-13.557V1644.88C2221.749,1637.393,2215.679,1631.323,2208.192,1631.323z"/>
			<path style="fill:#088CFC;" d="M2324.872,1813.799h-53.259c-4.639,0-8.4-3.761-8.4-8.4v-53.259c0-4.639,3.761-8.4,8.4-8.4h53.259
				c4.639,0,8.4,3.761,8.4,8.4v53.259C2333.271,1810.039,2329.511,1813.799,2324.872,1813.799z"/>
			<path style="fill:#088CFC;" d="M2431.238,1926.216h-42.946c-7.487,0-13.557-6.069-13.557-13.557v-155.363
				c0-7.487,6.07-13.557,13.557-13.557h42.946c7.487,0,13.557,6.069,13.557,13.557v155.363
				C2444.795,1920.147,2438.725,1926.216,2431.238,1926.216z"/>
			<path style="fill:#088CFC;" d="M1209.641,1926.216h-53.259c-4.639,0-8.4-3.761-8.4-8.4v-53.259c0-4.639,3.761-8.4,8.4-8.4h53.259
				c4.639,0,8.4,3.761,8.4,8.4v53.259C1218.041,1922.455,1214.281,1926.216,1209.641,1926.216z"/>
			<path style="fill:#088CFC;" d="M1321.165,1926.216h-53.259c-4.639,0-8.4-3.761-8.4-8.4v-53.259c0-4.639,3.761-8.4,8.4-8.4h53.259
				c4.639,0,8.4,3.761,8.4,8.4v53.259C1329.564,1922.455,1325.804,1926.216,1321.165,1926.216z"/>
			<path style="fill:#088CFC;" d="M1432.688,1926.216h-53.259c-4.639,0-8.4-3.761-8.4-8.4v-53.259c0-4.639,3.761-8.4,8.4-8.4h53.259
				c4.639,0,8.4,3.761,8.4,8.4v53.259C1441.088,1922.455,1437.327,1926.216,1432.688,1926.216z"/>
			<path style="fill:#088CFC;" d="M1866.992,1926.216h-364.254c-11.149,0-20.187-9.038-20.187-20.187v-29.685
				c0-11.149,9.038-20.187,20.187-20.187h364.254c11.149,0,20.187,9.038,20.187,20.187v29.685
				C1887.179,1917.178,1878.141,1926.216,1866.992,1926.216z"/>
			<path style="fill:#088CFC;" d="M1990.302,1926.216h-53.259c-4.639,0-8.4-3.761-8.4-8.4v-53.259c0-4.639,3.761-8.4,8.4-8.4h53.259
				c4.639,0,8.4,3.761,8.4,8.4v53.259C1998.703,1922.455,1994.942,1926.216,1990.302,1926.216z"/>
			<path style="fill:#088CFC;" d="M2101.826,1926.216h-53.26c-4.639,0-8.4-3.761-8.4-8.4v-53.259c0-4.639,3.761-8.4,8.4-8.4h53.26
				c4.639,0,8.4,3.761,8.4,8.4v53.259C2110.226,1922.455,2106.465,1926.216,2101.826,1926.216z"/>
			<path style="fill:#088CFC;" d="M2213.349,1926.216h-53.26c-4.639,0-8.4-3.761-8.4-8.4v-53.259c0-4.639,3.761-8.4,8.4-8.4h53.26
				c4.639,0,8.4,3.761,8.4,8.4v53.259C2221.749,1922.455,2217.988,1926.216,2213.349,1926.216z"/>
			<path style="fill:#088CFC;" d="M2324.872,1926.216h-53.259c-4.639,0-8.4-3.761-8.4-8.4v-53.259c0-4.639,3.761-8.4,8.4-8.4h53.259
				c4.639,0,8.4,3.761,8.4,8.4v53.259C2333.271,1922.455,2329.511,1926.216,2324.872,1926.216z"/>
		</g>
	</g>
	<g>
		<path style="fill:#F2BB16;" d="M2941.861,1935.142h-279.642c-7.918,0-14.337-6.419-14.337-14.337v-149.693
			c0-7.918,6.419-14.337,14.337-14.337h279.642c7.918,0,14.336,6.419,14.336,14.337v149.693
			C2956.198,1928.723,2949.779,1935.142,2941.861,1935.142z"/>
		<path style="fill:#F9E181;" d="M2957.807,1935.142h-279.642c-7.918,0-14.337-6.419-14.337-14.337v-149.693
			c0-7.918,6.419-14.337,14.337-14.337h279.642c7.918,0,14.337,6.419,14.337,14.337v149.693
			C2972.144,1928.723,2965.725,1935.142,2957.807,1935.142z"/>
		<g>
			<path style="fill:#FFFFFF;" d="M2761.799,1819.355c-2.649-3.441-5.999-6.086-10.06-7.938c-4.061-1.853-8.251-2.779-12.57-2.779
				c-5.299,0-10.082,0.991-14.358,2.978c-4.287,1.982-7.949,4.696-10.986,8.137c-3.048,3.441-5.407,7.481-7.087,12.112
				c-1.669,4.631-2.51,9.597-2.51,14.891c0,4.939,0.797,9.619,2.38,14.029c1.594,4.411,3.878,8.294,6.883,11.643
				c2.994,3.355,6.667,6.005,10.986,7.944c4.319,1.939,9.22,2.914,14.692,2.914c5.385,0,10.103-1.104,14.164-3.312
				c4.05-2.203,7.497-5.294,10.319-9.263l10.728,8.073c-0.711,0.969-1.949,2.359-3.716,4.168c-1.756,1.81-4.093,3.619-7.012,5.429
				c-2.908,1.81-6.419,3.398-10.523,4.761c-4.104,1.368-8.843,2.052-14.229,2.052c-7.41,0-14.088-1.411-20.045-4.233
				c-5.956-2.822-11.03-6.527-15.219-11.116c-4.201-4.589-7.4-9.775-9.597-15.553c-2.208-5.779-3.307-11.627-3.307-17.535
				c0-7.238,1.185-13.921,3.565-20.055c2.38-6.129,5.719-11.423,9.995-15.882c4.276-4.454,9.414-7.917,15.424-10.389
				c6-2.472,12.613-3.705,19.851-3.705c6.172,0,12.236,1.19,18.192,3.571c5.957,2.386,10.836,6.048,14.627,10.986L2761.799,1819.355
				z"/>
			<path style="fill:#FFFFFF;" d="M2786.422,1847.548h30.18v-30.175h10.319v30.175h30.18v10.324h-30.18v30.175h-10.319v-30.175
				h-30.18V1847.548z"/>
			<path style="fill:#FFFFFF;" d="M2874.561,1847.548h30.18v-30.175h10.319v30.175h30.18v10.324h-30.18v30.175h-10.319v-30.175
				h-30.18V1847.548z"/>
		</g>
	</g>
	<g>
		<path style="fill:#F9E181;" d="M1719.117,1161.165c0,0-20.494-26.119,10.016-38.824c15.389-6.408,19.748-14.715,15.434-26.357
			c-4.314-11.642,0.505-24.276,12.711-31.014c12.206-6.738,17.462-26.787,42.94-15.025c0,0,32.129,12.604,30.832,32.233
			c-1.298,19.629-1.035,17.963,5.82,31.316c6.855,13.353-7.43,29.323-7.964,37.331c-0.522,7.825,2.911,10.338,2.911,10.338H1719.117
			z"/>
		<path style="fill:#BBDBF3;" d="M1918.325,1338.143L1918.325,1338.143c-14.137,8.678-32.805,4.211-41.483-9.926l-65.229-106.267
			c-8.678-14.138-4.211-32.805,9.927-41.483l0,0c14.137-8.678,32.805-4.211,41.483,9.927l65.229,106.267
			C1936.929,1310.798,1932.463,1329.465,1918.325,1338.143z"/>
		<path style="fill:#088CFF;" d="M1718.756,1375.643c0,0-8.789,9.988-12.286,18.133c-3.496,8.146,38.245,3.653,38.245,3.653
			l-4.55-39.13L1718.756,1375.643z"/>
		<path style="fill:#B86B76;" d="M1997.122,1547.081L1997.122,1547.081c-16.303,22.732-48.241,27.991-70.973,11.687
			l-158.776-113.877c-22.731-16.303-27.991-48.241-11.687-70.972l0,0c16.303-22.732,48.241-27.991,70.972-11.687l158.776,113.877
			C2008.166,1492.411,2013.426,1524.349,1997.122,1547.081z"/>
		<path style="fill:#E7888B;" d="M1951.384,1561.33L1951.384,1561.33c-16.303,22.732-48.241,27.991-70.973,11.688l-158.776-113.877
			c-22.731-16.303-27.991-48.241-11.687-70.972v0c16.303-22.731,48.241-27.991,70.972-11.687l158.776,113.877
			C1962.428,1506.661,1967.687,1538.598,1951.384,1561.33z"/>
		<path style="fill:#BBDBF3;" d="M1761.927,1163.687l-52.782,24.858c0,0,11.736,134.924,12.949,149.788
			c1.213,14.863-3.337,37.31-3.337,37.31h126.491c0,0-1.517-72.8,6.977-93.124c5.754-13.768,9.707-22.143,6.37-37.917
			s-14.56-39.433-10.617-66.734l-32.457-13.043L1761.927,1163.687z"/>
		<polygon style="fill:#FDAE97;" points="1992.209,1796.266 1982.488,1762 2035.331,1754.367 2039.607,1788.925 		"/>
		<path style="fill:#FDAE97;" d="M1815.533,1103.464v61.373c0,0,0,0.75-0.15,1.95c-0.63,5.01-3.87,17.878-20.548,17.698
			c-15.238-0.18-25.887-11.369-30.416-17.248c-1.65-2.1-2.49-3.539-2.49-3.539l7.679-60.233H1815.533z"/>
		<polygon style="fill:#FDAE97;" points="1813.637,1790.293 1860.713,1799.382 1870.696,1769.521 1818.422,1761.724 		"/>
		<polygon style="fill:#E89780;" points="1815.52,1164.825 1788.233,1129.987 1815.52,1124.732 		"/>
		<path style="fill:#FDAE97;" d="M1816.784,1140.678c-10.866,3.54-25.927-0.773-36.586-11.966
			c-10.659-11.193-34.604-53.098-2.643-72.616c31.998-19.509,50.893,12.792,51.721,17.792c0,0,0.317,17.626,0.51,30.048
			c0.073,3.16,0.12,5.968,0.153,8.083c-0.011,0.342,0.023,0.657,0.022,0.963C1830.114,1122.714,1827.64,1137.174,1816.784,1140.678z
			"/>
		<path style="fill:#BBDBF3;" d="M1656.472,1354.9L1656.472,1354.9c-14.968-7.151-21.363-25.249-14.212-40.216l53.754-112.508
			c7.151-14.968,25.249-21.363,40.216-14.212l0,0c14.968,7.151,21.363,25.249,14.212,40.217l-53.754,112.508
			C1689.537,1355.656,1671.439,1362.052,1656.472,1354.9z"/>
		<path style="fill:#B86B76;" d="M1942.167,1477.629c-25.347,9.098-38.519,37.021-29.422,62.367l63.777,229.525l78.589-12.222
			l-47.793-236.614l-0.019,0.004c-0.267-4.548-1.148-9.133-2.765-13.639C1995.436,1481.704,1967.513,1468.531,1942.167,1477.629z"/>
		<polygon style="fill:#322A28;" points="1805.454,1826.292 1827.738,1830.222 1831.704,1816.089 1841.304,1832.614 
			1893.877,1841.884 1860.713,1799.382 1813.637,1790.293 		"/>
		<path style="fill:#E7888B;" d="M1920.977,1480.799c-26.521-4.676-51.811,13.032-56.487,39.553l-60.352,244.847l75.276,14.533
			l76.769-229.226l-0.018-0.006c2.025-4.081,3.534-8.5,4.366-13.214C1965.207,1510.766,1947.498,1485.475,1920.977,1480.799z"/>
		
			<line style="fill:none;stroke:#D1DDFF;stroke-width:2.9996;stroke-miterlimit:10;" x1="1845.859" y1="1806.128" x2="1866.891" y2="1809.768"/>
		<path style="fill:#F9E181;" d="M1800.218,1049.946c0,0,29.142,0.941,32.883,28.863l-14.796,0.718c0,0,0.234-9.575-7.205-13.765
			c0,0,5.24,7.311,3.447,14.468l-17.138,1.699c0,0-0.751-10.398,0.167-14.507c0,0-4.141,9.503-4.273,15.178l-12.061,3.304
			c0,0,0.08,9.711-4.288,13.198c-4.368,3.487-10.201,19.062-10.201,19.062s-12.515-34.33-6.984-45.266
			C1765.3,1061.964,1775.198,1044.405,1800.218,1049.946z"/>
		
			<line style="fill:none;stroke:#D1DDFF;stroke-width:2.9996;stroke-miterlimit:10;" x1="1849.665" y1="1814.269" x2="1870.696" y2="1817.908"/>
		<polygon style="fill:#322A28;" points="1996.22,1832.46 2018.561,1828.869 2017.676,1814.216 2032.163,1826.682 
			2084.869,1818.209 2039.607,1788.925 1992.209,1796.266 		"/>
		
			<line style="fill:none;stroke:#D1DDFF;stroke-width:2.9996;stroke-miterlimit:10;" x1="2027.785" y1="1800.167" x2="2048.848" y2="1796.712"/>
		
			<line style="fill:none;stroke:#D1DDFF;stroke-width:2.9996;stroke-miterlimit:10;" x1="2034.049" y1="1806.61" x2="2055.111" y2="1803.156"/>
		<path style="fill:none;stroke:#E5F0F8;stroke-width:1.4998;stroke-miterlimit:10;" d="M1820.627,1404.959
			c0,0,83.572,58.922,99.719,70.158c16.146,11.236,40.006,23.93,40.933,50.927c0.927,26.997-26.373,87.014-26.373,87.014"/>
		<path style="fill:#FDAE97;" d="M1775.057,1107.269c1.887,5.736,1.84,9.421-2.663,10.902c-4.503,1.481-10.74-0.946-12.627-6.682
			c-1.887-5.736,0.234-11.587,4.737-13.068S1773.171,1101.533,1775.057,1107.269z"/>
		
			<path style="fill:none;stroke:#E89780;stroke-width:0.7499;stroke-linecap:round;stroke-linejoin:round;stroke-miterlimit:10;" d="
			M1763.644,1104.196c0,0,7.221-0.344,7.849,5.766c0,0-2.367-2.171-5.975-1.529"/>
		<path style="fill:#322A28;" d="M1801.744,1098.981c-0.014,2.333,1.198,4.231,2.707,4.24c1.509,0.009,2.744-1.875,2.758-4.207
			c0.014-2.333-1.198-4.231-2.707-4.24C1802.993,1094.764,1801.758,1096.648,1801.744,1098.981z"/>
		<path style="fill:#322A28;" d="M1821.686,1097.29c-0.014,2.333,1.198,4.231,2.707,4.24c1.509,0.009,2.744-1.875,2.758-4.207
			c0.014-2.333-1.198-4.231-2.707-4.24C1822.934,1093.073,1821.7,1094.957,1821.686,1097.29z"/>
		<path style="fill:#FFFFFF;" d="M1809.121,1126.069c2.752,0.955,5.757-0.502,6.712-3.255l-9.966-3.458
			C1804.911,1122.109,1806.368,1125.115,1809.121,1126.069z"/>
		<path style="fill:none;stroke:#2C3447;stroke-width:1.1133;stroke-miterlimit:10;" d="M1796.458,1094.261
			c0,0,4.718-5.786,10.164-3.65"/>
		<path style="fill:none;stroke:#2C3447;stroke-width:1.1133;stroke-miterlimit:10;" d="M1822.139,1089.663
			c0,0,3.406-0.614,7.006,3.092"/>
		<path style="fill:none;stroke:#2C3447;stroke-width:1.1133;stroke-miterlimit:10;" d="M1814.636,1097.582
			c0,0,0.198,11.56,6.973,13.015c0,0-2.17,1.951-4.879,2.743"/>
		<path style="fill:#E89780;" d="M1805.434,1111.703c-0.568,2.221-4.366,3.168-8.483,2.114c-4.117-1.053-6.994-3.708-6.425-5.929
			c0.568-2.221,4.366-3.168,8.483-2.114C1803.125,1106.828,1806.002,1109.482,1805.434,1111.703z"/>
		<path style="fill:#E89780;" d="M1829.939,1112.02c-2.476,0.094-4.461-0.682-4.957-2.188c-0.646-1.966,1.438-4.42,4.803-5.896
			C1829.858,1107.096,1829.906,1109.904,1829.939,1112.02z"/>
		<path style="fill:#FDAE97;" d="M1874.1,1320.445c-7.238-16.676-1.118-35.547,13.601-41.936l134.202-38.155
			c4.194-2.255,8.902-5.017,12.522-7.779c8.414-6.42,33.327-21.167,35.424-17.563c2.097,3.604-12.923,17.167-10.802,17.958
			c2.121,0.791,15.463-6.586,20.901-10.183c5.438-3.597,15.855-13.184,19.437-11.878c3.582,1.307,3.082,6.899,3.082,6.899
			s3.527-4.145,5.689-1.445c2.163,2.701-1.767,10.495-1.767,10.495s1.727-2.508,3.373,1.063c1.645,3.571-8.181,13.156-8.181,13.156
			s2.531-1.086,3.41,1.793c0.879,2.879-13.421,14.043-25.871,18.535c-11.113,4.009-38.579,10.602-44.351,11.971l-120.744,65.771
			C1899.305,1345.536,1881.34,1337.12,1874.1,1320.445z"/>
		
			<line style="fill:none;stroke:#2C3447;stroke-width:1.5418;stroke-miterlimit:10;" x1="1719.632" y1="1292.666" x2="1737.536" y2="1255.194"/>
		<polygon style="fill:#89A5C7;" points="1798.358,1446.797 1751.058,1404.959 1890.965,1404.959 1943.005,1446.797 		"/>
		<path style="fill:none;stroke:#FFFFFF;stroke-width:1.2699;stroke-miterlimit:10;" d="M1773.702,1120.083
			c-0.018,2.452-2.021,4.425-4.473,4.406c-2.452-0.018-4.425-2.021-4.407-4.473c0.018-2.452,2.021-4.425,4.473-4.406
			C1771.748,1115.629,1773.721,1117.631,1773.702,1120.083z"/>
		<g>
			<polygon style="fill:#A5BBD6;" points="1943.005,1446.797 1798.358,1446.797 1836.108,1338.48 1980.756,1338.48 			"/>
			<g>
				<polygon style="fill:#89A5C7;" points="1799.935,1441.539 1752.636,1399.701 1892.542,1399.701 1944.583,1441.539 				"/>
				<polygon style="fill:#A5BBD6;" points="1940.273,1444.4 1795.626,1444.4 1833.376,1336.083 1978.024,1336.083 				"/>
				<polygon style="fill:#89A5C7;" points="1978.024,1336.083 1980.756,1338.48 1836.108,1338.48 1798.358,1446.797 
					1795.626,1444.4 1833.376,1336.083 				"/>
				<polygon style="fill:#586773;" points="1752.636,1399.701 1751.058,1404.959 1798.358,1446.797 1800.19,1441.539 				"/>
			</g>
			<path style="fill:#89A5C7;" d="M1911.693,1393.871c0,3.92-7.18,7.099-16.037,7.099c-8.857,0-16.037-3.178-16.037-7.099
				c0-3.92,7.18-7.098,16.037-7.098C1904.513,1386.772,1911.693,1389.95,1911.693,1393.871z"/>
		</g>
		<path style="fill:#FDAE97;" d="M1642.143,1311.558c8.532-16.052,27.105-23.024,41.275-15.493l113.465,81.19
			c4.377,1.875,9.471,3.837,13.887,4.946c10.265,2.581,37.322,12.877,35.81,16.762c-1.512,3.886-21.48,0.589-20.777,2.741
			c0.703,2.152,14.786,7.99,20.988,10.003c6.202,2.013,20.191,4.186,21.402,7.801c1.21,3.615-3.476,6.709-3.476,6.709
			s5.44,0.175,4.676,3.55c-0.765,3.375-9.31,5.157-9.31,5.157s3.037-0.212,1.27,3.3c-1.767,3.512-15.388,1.799-15.388,1.799
			s2.427,1.303,0.722,3.784c-1.704,2.481-19.347-1.747-30.617-8.686c-10.06-6.194-32.331-23.568-36.999-27.229l-126.679-53.456
			C1638.224,1346.906,1633.612,1327.611,1642.143,1311.558z"/>
		<path style="fill:none;stroke:#2C3447;stroke-width:1.5418;stroke-miterlimit:10;" d="M1851.787,1283.685
			c0,0,9.506-19.997,7.962-30.383c-1.544-10.386-10.005-38.45-11.121-47.069"/>
	</g>
	<g>
		<polygon style="fill:#FDAE97;" points="4869.827,1285.453 4932.597,1284.387 4929.309,1218.476 4927.739,1186.958 
			4927.65,1185.388 4878.536,1164.741 4876.936,1187.017 4875.751,1203.25 		"/>
		<path style="fill:#088CFC;" d="M4992.583,1489.473l26.396,218.505c0.829,5.523,0.803,11.265-0.324,17.061
			c-5.303,27.283-31.72,45.101-59.003,39.798c-27.283-5.303-37.725-26.37-42.625-57.697c-9.407-60.137-42.26-240.568-42.26-240.568
			L4992.583,1489.473z"/>
		<polygon style="fill:#088CFC;" points="4821.43,1478.475 4918.392,1484.98 4917.909,1592.403 4906.4,1609.423 4895.732,1712.983 
			4797.583,1705.137 		"/>
		<path style="fill:#FDAE97;" d="M4900.397,1257.889c-23.031,0.507-34.241-12.128-36.655-17.699l10.014-2.705l56.409-1.791
			l6.843,2.19C4934.12,1243.26,4923.927,1257.371,4900.397,1257.889z"/>
		<path style="fill:#FFFFFF;" d="M4818.663,1401.183l0.99,94.188h173.644l-0.802-237.458l-60.841-21.985
			c-0.682,1.25-1.42,2.557-2.329,3.92l-0.227,0.284c-3.295,4.204-9.601,8.18-27.268,8.578c-14.713,0.341-21.928-1.704-26.018-4.374
			l-0.057-0.057c-2.216-1.477-3.977-4.393-5-5.984l-56.979,13.823l3.864,119.865L4818.663,1401.183z"/>
		<path style="fill:#F74242;" d="M4863.743,1240.19c0,0,4.928,87.875,4.218,138.668c-0.71,50.793-4.218,179.156-4.218,179.156
			s-32.167,0.68-61.756-5.312c0,0-0.446-58.152,7.712-98.256c8.158-40.104,4.078-202.327,4.078-202.327L4863.743,1240.19z"/>
		<path style="fill:#F74242;" d="M5047.722,1449.687l-0.368,0.144c-16.175,6.344-34.599-1.699-40.943-17.874l-51.691-131.792
			c-6.344-16.175,1.7-34.599,17.875-40.943l0.368-0.144c16.175-6.344,34.6,1.699,40.943,17.874l51.69,131.792
			C5071.94,1424.919,5063.897,1443.343,5047.722,1449.687z"/>
		<path style="fill:#088CFC;" d="M5037.362,1929.763l-91.205-0.063l-27.492-212.242c-2.87-27.659,17.18-52.426,44.803-55.338
			c27.659-2.87,52.388,17.178,55.299,44.801c0.262,2.401,0.293,4.747,0.205,7.123l15.877,186.288L5037.362,1929.763
			L5037.362,1929.763z"/>
		<path style="fill:#088CFC;" d="M4896.082,1709.166l-23.421,220.597h-89.602l14.367-221.805c-0.117-2.338,0.545-4.948,0.74-7.364
			c2.455-27.703,24.469-48.393,52.173-45.977C4878.003,1657.071,4898.498,1681.462,4896.082,1709.166z"/>
		<path style="fill:#322A28;" d="M4868.755,1147.467c0,0-5.613-21.731,4.287-18.531
			C4882.94,1132.136,4868.755,1147.467,4868.755,1147.467z"/>
		<path style="fill:#F74242;" d="M4937.008,1237.884c0,0-23.746,123.103-24.543,184.289c-0.798,61.186-0.798,61.186-0.798,61.186
			l2.72,74.655c0,0,66.156,8.201,89.285-1.233c0,0,1.615-88.619-4.532-119.996c-6.147-31.377-6.645-178.871-6.645-178.871
			L4937.008,1237.884z"/>
		<polygon style="fill:#EA9D85;" points="4874.02,1227.271 4909.304,1201.544 4875.751,1203.25 		"/>
		
			<path style="fill:none;stroke:#FFFFFF;stroke-width:1.6807;stroke-linecap:round;stroke-linejoin:round;stroke-miterlimit:10;" d="
			M4924.811,1539.942c0,0,48.155,7.975,70.59,0"/>
		<path style="fill:#FDAE97;" d="M4871.552,1131.311c0,0-4.666,20.572-7.977,35.165l-2.736,12.062
			c-2.162,9.53-2.696,24.273,7.288,29.976c9.949,5.695,25.696,4.571,38.492-4.247c12.805-8.853,47.014-54.041,19.55-79.83
			C4898.67,1098.639,4873.407,1126.555,4871.552,1131.311z"/>
		
			<path style="fill:none;stroke:#FFFFFF;stroke-width:1.6807;stroke-linecap:round;stroke-linejoin:round;stroke-miterlimit:10;" d="
			M4852.295,1264.451c0,0,4.778,76.821,6.468,110.813c1.69,33.992-6.468,153.644-6.468,153.644"/>
		<path style="fill:#322A28;" d="M4928.553,1207.474c0,0-10.908-12.332-9.448-19.452c1.46-7.12-5.737-16.271-2.984-27.141
			s3.884-15.453-1.899-15.658c-5.784-0.205-47.354,3.622-45.949-15.654c1.405-19.276,51.525-31.595,66.604,3.319
			c0,0,12.881,1.065,5.468,27.71S4931.357,1189.25,4928.553,1207.474z"/>
		
			<path style="fill:none;stroke:#FFFFFF;stroke-width:1.6807;stroke-linecap:round;stroke-linejoin:round;stroke-miterlimit:10;" d="
			M4947.163,1249.947c0,0-9.045,75.235-14.565,112.4c-5.521,37.164-6.476,128.769-7.786,162.708"/>
		<g>
			<path style="fill:#FDAE97;" d="M4915.009,1182.159c-5.042,4.982-6.966,8.858-3.054,12.816c3.912,3.959,11.727,4.761,16.77-0.221
				c5.042-4.982,5.958-12.23,2.046-16.189C4926.859,1174.606,4920.051,1177.176,4915.009,1182.159z"/>
		</g>
		<path style="fill:#322A28;" d="M4893.97,1164.534c-0.501,2.21-2.067,3.74-3.497,3.415c-1.43-0.324-2.183-2.379-1.682-4.59
			c0.501-2.211,2.067-3.74,3.497-3.415C4893.719,1160.269,4894.472,1162.324,4893.97,1164.534z"/>
		<path style="fill:#322A28;" d="M4867.232,1158.469c-0.501,2.211,0.251,4.266,1.681,4.59s2.996-1.205,3.497-3.415
			c0.501-2.211-0.251-4.266-1.681-4.59C4869.299,1154.73,4867.733,1156.259,4867.232,1158.469z"/>
		<path style="fill:#EA9D85;" d="M4886.544,1178.197c0.22,2.185,3.919,3.603,8.264,3.166c4.345-0.437,7.689-2.562,7.47-4.747
			c-0.22-2.185-3.919-3.603-8.265-3.166C4889.668,1173.886,4886.325,1176.012,4886.544,1178.197z"/>
		<path style="fill:#EA9D85;" d="M4863.575,1166.476l-1.779,7.842c3.218,1.137,6.133,0.836,6.981-0.783
			C4869.732,1171.607,4867.416,1168.456,4863.575,1166.476z"/>
		
			<path style="fill:none;stroke:#EA9D85;stroke-width:1.6375;stroke-linecap:round;stroke-linejoin:round;stroke-miterlimit:10;" d="
			M4924.507,1189.437c-3.456-1.501-6.579-1.492-6.579-1.492c4.583-5.292,9.124-3.525,9.124-3.525"/>
		<path style="fill:none;stroke:#332B27;stroke-width:1.0474;stroke-miterlimit:10;" d="M4882.627,1163.57l-8.081,13.009
			c-0.819,1.318-0.634,3.024,0.447,4.137l1.674,1.723l1.716,1.766"/>
		<path style="fill:none;stroke:#332B27;stroke-width:1.0474;stroke-miterlimit:10;" d="M4898.242,1160.774
			c0,0-3.672-5.752-9.545-5.498"/>
		<path style="fill:none;stroke:#332B27;stroke-width:1.0474;stroke-miterlimit:10;" d="M4866.386,1151.061
			c0,0,4.593-2.738,9.243,0.86"/>
		<polygon style="fill:#FDAE97;" points="4859.732,1964.238 4862.134,1929.763 4795.002,1929.763 4792.38,1964.238 		"/>
		<path style="fill:#F74242;" d="M4774.563,1449.764l-0.381-0.104c-16.757-4.591-26.71-22.058-22.119-38.815l37.409-136.534
			c4.591-16.757,22.058-26.71,38.814-22.119l0.381,0.104c16.757,4.591,26.71,22.058,22.119,38.815l-37.409,136.534
			C4808.786,1444.401,4791.32,1454.355,4774.563,1449.764z"/>
		<polygon style="fill:#EA9D85;" points="4793.814,1945.381 4862.134,1929.763 4795.002,1929.763 		"/>
		<polygon style="fill:#FDAE97;" points="4959.377,1964.238 4956.803,1929.707 5025.564,1929.763 5026.729,1964.238 		"/>
		<polygon style="fill:#EA9D85;" points="4958.239,1948.967 5025.564,1929.763 4956.803,1929.707 		"/>
		<path style="fill:#322A28;" d="M4759.298,1993.237h99.13l0.17-4.033l1.217-26.718h-67.455c-8.351,0-16.077,4.903-21.985,10.016
			c-4.886,4.374-8.521,10.112-10.226,16.702C4759.752,1990.51,4759.468,1991.874,4759.298,1993.237z"/>
		<path style="fill:#FFF1F0;" d="M4759.298,1993.237h99.13l0.17-4.033h-98.448
			C4759.752,1990.51,4759.468,1991.874,4759.298,1993.237z"/>
		<g>
			
				<path style="fill:none;stroke:#FFF1F0;stroke-width:1.2969;stroke-linecap:round;stroke-linejoin:round;stroke-miterlimit:10;" d="
				M4790.33,1967.983c0,0,8.569-15.039,14.339-9.093C4810.44,1964.835,4790.33,1967.983,4790.33,1967.983"/>
			
				<path style="fill:none;stroke:#FFF1F0;stroke-width:1.2969;stroke-linecap:round;stroke-linejoin:round;stroke-miterlimit:10;" d="
				M4793.347,1970.978l-3.017-2.995c0,0-8.568-15.039-14.339-9.093c-5.771,5.945,14.339,9.093,14.339,9.093"/>
			
				<line style="fill:none;stroke:#FFF1F0;stroke-width:1.2969;stroke-linecap:round;stroke-linejoin:round;stroke-miterlimit:10;" x1="4788.028" y1="1970.978" x2="4790.33" y2="1967.983"/>
		</g>
		<path style="fill:#322A28;" d="M5059.297,1993.237h-99.13l-0.17-4.033l-1.217-26.718h67.456c8.351,0,16.077,4.903,21.985,10.016
			c4.885,4.374,8.521,10.112,10.226,16.702C5058.842,1990.51,5059.127,1991.874,5059.297,1993.237z"/>
		<path style="fill:#FFF1F0;" d="M5059.297,1993.237h-99.13l-0.17-4.033h98.449
			C5058.842,1990.51,5059.127,1991.874,5059.297,1993.237z"/>
		<g>
			
				<path style="fill:none;stroke:#FFF1F0;stroke-width:1.2969;stroke-linecap:round;stroke-linejoin:round;stroke-miterlimit:10;" d="
				M5028.265,1968.893c0,0-8.568-15.038-14.339-9.093C5008.155,1965.746,5028.265,1968.893,5028.265,1968.893"/>
			
				<path style="fill:none;stroke:#FFF1F0;stroke-width:1.2969;stroke-linecap:round;stroke-linejoin:round;stroke-miterlimit:10;" d="
				M5025.249,1971.888l3.016-2.995c0,0,8.568-15.038,14.339-9.093c5.771,5.946-14.339,9.093-14.339,9.093"/>
			
				<line style="fill:none;stroke:#FFF1F0;stroke-width:1.2969;stroke-linecap:round;stroke-linejoin:round;stroke-miterlimit:10;" x1="5030.567" y1="1971.888" x2="5028.265" y2="1968.893"/>
		</g>
		
			<polyline style="fill:none;stroke:#FFFFFF;stroke-width:0.8521;stroke-linecap:round;stroke-linejoin:round;stroke-miterlimit:10;" points="
			4904.171,1631.061 4896.275,1604.697 4888.709,1604.697 4876.662,1572.064 		"/>
		
			<line style="fill:none;stroke:#FFFFFF;stroke-width:0.8521;stroke-linecap:round;stroke-linejoin:round;stroke-miterlimit:10;" x1="5028.265" y1="1904.845" x2="4950.649" y2="1904.845"/>
		
			<line style="fill:none;stroke:#FFFFFF;stroke-width:0.8521;stroke-linecap:round;stroke-linejoin:round;stroke-miterlimit:10;" x1="4869.997" y1="1904.845" x2="4792.38" y2="1904.845"/>
		<path style="fill:#FFFFFF;" d="M4885.187,1189.14l-12.359,2.633c0,0,1.65,6.347,7.845,5.387
			C4886.867,1196.199,4885.187,1189.14,4885.187,1189.14z"/>
		
			<path style="fill:none;stroke:#FFFFFF;stroke-width:1.6807;stroke-linecap:round;stroke-linejoin:round;stroke-miterlimit:10;" d="
			M4806.066,1535.479c0,0,23.114,7.705,46.229,1.586"/>
		<path style="fill:#FFFFFF;" d="M4852.295,1403.364c0,2.378-1.928,4.306-4.306,4.306s-4.306-1.928-4.306-4.306
			c0-2.378,1.928-4.306,4.306-4.306S4852.295,1400.986,4852.295,1403.364z"/>
		<path style="fill:#FFFFFF;" d="M4852.295,1442.917c0,2.378-1.928,4.306-4.306,4.306s-4.306-1.928-4.306-4.306
			c0-2.378,1.928-4.306,4.306-4.306S4852.295,1440.539,4852.295,1442.917z"/>
		<path style="fill:#FFFFFF;" d="M4846.856,1510.71c0,2.378-1.928,4.306-4.306,4.306s-4.306-1.928-4.306-4.306
			c0-2.378,1.928-4.306,4.306-4.306S4846.856,1508.333,4846.856,1510.71z"/>
		<g>
			<polygon style="fill:#A5BBD6;" points="4729.055,1487.184 4877.18,1487.184 4838.522,1376.263 4690.397,1376.263 			"/>
			<g>
				<polygon style="fill:#89A5C7;" points="4875.565,1481.799 4924.001,1438.955 4780.731,1438.955 4727.44,1481.799 				"/>
				<polygon style="fill:#A5BBD6;" points="4731.853,1484.729 4879.978,1484.729 4841.32,1373.808 4693.195,1373.808 				"/>
				<polygon style="fill:#89A5C7;" points="4693.195,1373.808 4690.397,1376.263 4838.522,1376.263 4877.18,1487.184 
					4879.978,1484.729 4841.32,1373.808 				"/>
				<polygon style="fill:#586773;" points="4924.001,1438.955 4925.617,1444.34 4877.18,1487.184 4875.303,1481.799 				"/>
			</g>
			<ellipse style="fill:#89A5C7;" cx="4777.543" cy="1432.985" rx="16.423" ry="7.269"/>
		</g>
		<path style="fill:#FDAE97;" d="M4847.642,1502.638c0.97,2.615,17.875,2.476,29.565-1.474c9.91-3.336,31.929-13.489,38.398-16.527
			l-12.224-39.727c-4.136,0.714-12.728,1.35-16.625,2.267c-10.368,2.441-30.209,10.927-29.647,14.798
			c0.526,3.839,18.65,0.202,17.555,2.01c-1.096,1.808-14.397,8.972-20.428,9.486c-6.063,0.55-19.196-0.416-21.044,2.599
			c-1.881,3.052,1.757,6.816,1.757,6.816s-4.984-0.949-5.007,2.271c-0.022,3.219,7.361,6.634,7.361,6.634s-2.684-0.841-1.832,2.706
			c0.888,3.578,13.594,4.877,13.594,4.877S4846.604,1500.026,4847.642,1502.638z"/>
		<path style="fill:#F74242;" d="M4900.966,1437.059l124.923-50.198c15.017-5.518,32.437,3.851,38.74,20.868
			c6.264,17.017-0.901,35.486-15.918,41.043l-130.153,45.459L4900.966,1437.059z"/>
		<polyline style="fill:none;stroke:#332B27;stroke-width:1.4703;stroke-miterlimit:10;" points="4914.246,1431.723 
			4994.112,1400.599 4970.314,1339.925 		"/>
		
			<line style="fill:none;stroke:#332B27;stroke-width:1.4703;stroke-miterlimit:10;" x1="4999.815" y1="1465.85" x2="4929.937" y2="1490.257"/>
	</g>
	<path style="fill:#FFFFFF;" d="M5291.833,1660.463h-32.405v-44.777c0-23.837-19.393-43.23-43.23-43.23s-43.231,19.393-43.231,43.23
		v44.777h-32.406c-2.151,0-3.891,1.74-3.891,3.877v118.869c0,2.151,1.74,3.877,3.891,3.877h75.643h75.629
		c2.151,0,3.891-1.726,3.891-3.877V1664.34C5295.724,1662.203,5293.983,1660.463,5291.833,1660.463z M5186.667,1615.687
		c0-16.282,13.247-29.529,29.53-29.529c16.282,0,29.53,13.247,29.53,29.529v44.777h-29.524h-29.536V1615.687z"/>
	<path style="fill:#FFFFFF;" d="M558.453,1675.286l-46.447-28.41c-4.543,2.136-9.616,3.33-14.968,3.33h0
		c-5.352,0-10.426-1.194-14.968-3.33l-46.446,28.41c0,0-6.315,94.405,61.415,122.872l0,0
		C564.768,1769.69,558.453,1675.286,558.453,1675.286z"/>
	<path style="fill:#E5F0F8;" d="M5078.29,847.251L5078.29,847.251l39.938-24.465l-5.025-8.205l-11.695,7.164l-4.553-7.433
		l11.694-7.163l-7.215-11.778l-15.705,9.62l-4.553-7.433l15.705-9.62l-6.732-10.99l-21.947,13.443l0,0l-4.899,3.001l-17.255,10.57
		l-2.157,1.322l0,0l0,0l-79.85-130.356l0.017-0.012l25.801-15.821c15.96-9.798,20.995-30.851,11.253-46.729l-18.205-29.76
		c-9.776-15.885-30.816-20.989-46.735-11.219l-0.364,0.219l-6.642,4.072l-0.206,0.141l-53.22,32.631l-3.561,2.171l-11.055,6.766
		c-6.759,4.122-11.528,10.265-14.043,17.222c-0.042,0.028-0.042,0.028-0.042,0.028c-0.105,0.375-0.246,0.743-0.352,1.118
		c-2.068,6.288-2.337,13.125-0.571,19.625c0.842,2.991,2.084,5.949,3.788,8.742l0.495,0.81l0.035,0.006l7.727,12.633l1.265,2.065
		l8.66,14.17c2.058,3.397,4.677,6.289,7.606,8.664c1.748,1.402,3.604,2.609,5.533,3.614c7.027,3.677,15.206,4.842,23.055,3.148
		c3.656-0.754,7.214-2.136,10.577-4.2l21.546-13.206l2.717-1.682l0.892-0.551l0.011-0.007l110.839,180.948
		c1.645,2.685,5.151,3.513,7.836,1.868l7.131-4.368l0,0l7.147-4.378c2.668-1.634,3.523-5.135,1.879-7.819l-2.888-4.715l4.612-2.825
		L5078.29,847.251z M4873.127,659.263l-4.185-6.807c-0.015-0.025-0.023-0.051-0.039-0.076c-0.368-0.606-0.665-1.239-0.907-1.886
		c-0.07-0.185-0.113-0.374-0.173-0.561c-0.161-0.511-0.297-1.027-0.385-1.551c-0.032-0.186-0.053-0.373-0.076-0.56
		c-0.066-0.562-0.095-1.125-0.08-1.688c0.003-0.137,0.002-0.274,0.01-0.41c0.132-2.155,0.843-4.264,2.07-6.057
		c0.083-0.121,0.178-0.233,0.266-0.351c0.344-0.464,0.721-0.907,1.135-1.318c0.104-0.103,0.207-0.205,0.315-0.305
		c0.519-0.477,1.074-0.923,1.69-1.303l29.075-17.807l0.315-0.19l10.023-6.142l19.871-12.17l3.872-2.378l4.14-2.527l7.774-4.758
		c1.046-0.646,2.181-1.042,3.337-1.309c4.77-1.092,10.06,0.849,12.699,5.172l18.205,29.691c1.059,1.732,1.544,3.661,1.612,5.593
		c0.135,4.12-1.81,8.251-5.497,10.492l-41.227,25.252l-2.916,1.789l-24.743,15.157l-6.114,3.74
		c-2.263,1.388-4.853,1.845-7.354,1.568c-3.496-0.391-6.81-2.255-8.746-5.393l-9.846-16.125l-1.653-2.705L4873.127,659.263z"/>
</g>
</svg>
